<?xml version="1.0" encoding="UTF-8"?>
<svg id="Warstwa_1" data-name="Warstwa 1" xmlns="http://www.w3.org/2000/svg" xmlns:xlink="http://www.w3.org/1999/xlink" viewBox="0 0 28.35 28.35">
  <defs>
    <style>
      .cls-1 {
        fill: url(#Gradient_bez_nazwy_16);
      }

      .cls-1, .cls-2 {
        stroke-width: 0px;
      }

      .cls-2 {
        fill: url(#Gradient_bez_nazwy_9);
      }
    </style>
    <linearGradient id="Gradient_bez_nazwy_16" data-name="Gradient bez nazwy 16" x1="0" y1="14.17" x2="28.35" y2="14.17" gradientUnits="userSpaceOnUse">
      <stop offset="0" stop-color="#e30613"/>
      <stop offset="1" stop-color="#ef7d00"/>
    </linearGradient>
    <linearGradient id="Gradient_bez_nazwy_9" data-name="Gradient bez nazwy 9" x1="0" y1="14.17" x2="28.35" y2="14.17" gradientUnits="userSpaceOnUse">
      <stop offset="0" stop-color="#009fe3"/>
      <stop offset="1" stop-color="#662483"/>
    </linearGradient>
  </defs>
  <path class="cls-1" d="M0,0v14.17C0,21.89,6.46,28.35,14.17,28.35s14.17-6.46,14.17-14.17V0H0ZM25.48,14.17c0,6.1-5.2,11.12-11.3,11.12S3.05,20.27,3.05,14.17V2.87h22.43v11.3Z"/>
  <path class="cls-2" d="M0,0v14.17c0,7.71,6.46,14.17,14.17,14.17s14.17-6.46,14.17-14.17V0H0ZM25.48,14.17c0,6.1-5.2,11.12-11.3,11.12S3.05,20.27,3.05,14.17V2.87h22.43v11.3Z"/>
</svg>