<?xml version="1.0" encoding="UTF-8"?>
<svg id="Warstwa_1" data-name="Warstwa 1" xmlns="http://www.w3.org/2000/svg" xmlns:xlink="http://www.w3.org/1999/xlink" viewBox="0 0 111.51 28.35">
  <defs>
    <style>
      .cls-1 {
        fill: #1d1d1b;
      }

      .cls-1, .cls-2 {
        stroke-width: 0px;
      }

      .cls-2 {
        fill: url(#Gradient_bez_nazwy_9);
      }
    </style>
    <linearGradient id="Gradient_bez_nazwy_9" data-name="Gradient bez nazwy 9" x1="0" y1="14.12" x2="28.14" y2="14.12" gradientUnits="userSpaceOnUse">
      <stop offset="0" stop-color="#009fe3"/>
      <stop offset="1" stop-color="#662483"/>
    </linearGradient>
  </defs>
  <g>
    <path class="cls-1" d="M46.55,9.62c-.56,2.44-2.39,4.22-5.65,4.22-4.18,0-6.21-3.03-6.21-6.85s2.07-6.99,6.32-6.99c3.45,0,5.18,2,5.53,4.25h-2.53c-.35-1.18-1.16-2.24-3.09-2.24-2.6,0-3.62,2.34-3.62,4.89,0,2.4.92,4.93,3.7,4.93,1.96,0,2.66-1.25,3.01-2.21h2.54Z"/>
    <path class="cls-1" d="M55.93,13.66v-4.82c0-.14-.02-.28-.1-.4L51.16.19h2.86c1.1,2.08,2.65,5.05,3.31,6.41.58-1.33,2.24-4.39,3.35-6.41h2.65l-4.76,8.22c-.06.09-.1.16-.1.4v4.84h-2.53Z"/>
    <path class="cls-1" d="M68.75.19h5.63c3.12,0,4.38,1.63,4.38,3.41,0,1.54-.84,2.53-1.79,2.92.91.33,2.19,1.28,2.19,3.12,0,2.38-1.85,4-4.6,4h-5.81V.19ZM74.05,5.6c1.58,0,2.22-.67,2.22-1.74s-.79-1.68-2.06-1.68h-2.98v3.42h2.82ZM71.22,11.67h2.87c1.61,0,2.48-.7,2.48-2.08,0-1.21-.78-2.01-2.62-2.01h-2.74v4.08Z"/>
    <path class="cls-1" d="M94.58,7.68h-6.52v3.88h7.19l-.3,2.09h-9.34V.19h9.27v2.09h-6.82v3.3h6.52v2.09Z"/>
    <path class="cls-1" d="M103.87,8.08v5.57h-2.47V.19h5.69c2.88,0,4.42,1.57,4.42,3.66,0,1.79-.99,2.8-2.07,3.18.82.26,1.81,1,1.81,3.39v.63c0,.92,0,1.99.19,2.6h-2.42c-.24-.58-.26-1.61-.26-2.98v-.23c0-1.63-.43-2.37-2.68-2.37h-2.21ZM103.87,6.04h2.61c1.76,0,2.47-.66,2.47-1.92s-.79-1.89-2.36-1.89h-2.72v3.81Z"/>
    <path class="cls-1" d="M36.06,25.74c.21.93.86,1.37,1.94,1.37s1.58-.48,1.58-1.17c0-.76-.42-1.12-1.98-1.49-2.24-.53-2.86-1.33-2.86-2.51,0-1.43,1.06-2.46,3.07-2.46,2.21,0,3.1,1.22,3.22,2.43h-1.63c-.11-.61-.47-1.21-1.63-1.21-.86,0-1.36.37-1.36,1.05s.41.94,1.84,1.28c2.49.59,3.01,1.54,3.01,2.71,0,1.51-1.14,2.6-3.36,2.6s-3.26-1.12-3.46-2.6h1.64Z"/>
    <path class="cls-1" d="M51.1,24.4h-4.18v2.49h4.61l-.2,1.34h-5.99v-8.63h5.94v1.34h-4.37v2.12h4.18v1.34Z"/>
    <path class="cls-1" d="M62.62,25.65c-.36,1.56-1.53,2.7-3.62,2.7-2.69,0-3.98-1.94-3.98-4.39s1.32-4.48,4.05-4.48c2.21,0,3.32,1.29,3.54,2.72h-1.62c-.22-.76-.74-1.44-1.97-1.44-1.66,0-2.32,1.51-2.32,3.13,0,1.54.59,3.16,2.37,3.16,1.26,0,1.71-.8,1.93-1.41h1.63Z"/>
    <path class="cls-1" d="M68.26,19.6v5.16c0,1.79.94,2.3,1.93,2.3,1.15,0,1.9-.59,1.9-2.3v-5.16h1.62v5.08c0,2.9-1.66,3.67-3.54,3.67s-3.54-.81-3.54-3.61v-5.13h1.63Z"/>
    <path class="cls-1" d="M79.83,24.66v3.57h-1.58v-8.63h3.65c1.85,0,2.83,1.01,2.83,2.35,0,1.15-.63,1.79-1.33,2.04.52.17,1.16.64,1.16,2.17v.41c0,.59,0,1.27.12,1.66h-1.55c-.15-.37-.16-1.03-.16-1.91v-.15c0-1.04-.27-1.52-1.72-1.52h-1.41ZM79.83,23.35h1.67c1.13,0,1.58-.43,1.58-1.23s-.51-1.21-1.51-1.21h-1.74v2.44Z"/>
    <path class="cls-1" d="M90.54,19.6v8.63h-1.62v-8.63h1.62Z"/>
    <path class="cls-1" d="M96.89,20.94h-2.68v-1.34h6.98v1.34h-2.68v7.29h-1.62v-7.29Z"/>
    <path class="cls-1" d="M106.77,28.23v-3.09c0-.09-.01-.18-.07-.26l-2.99-5.28h1.83c.71,1.34,1.7,3.24,2.12,4.11.37-.85,1.44-2.81,2.15-4.11h1.7l-3.05,5.27c-.04.05-.07.1-.07.26v3.1h-1.62Z"/>
  </g>
  <path class="cls-2" d="M0,.05v14.07c0,7.66,6.41,14.07,14.07,14.07s14.07-6.41,14.07-14.07V.05H0ZM25.29,14.12c0,6.05-5.16,11.04-11.22,11.04S3.03,20.18,3.03,14.12V2.9h22.26v11.22Z"/>
</svg>