<?xml version="1.0" encoding="utf-8"?>
<!-- Generator: Adobe Illustrator 28.1.0, SVG Export Plug-In . SVG Version: 6.00 Build 0)  -->
<svg version="1.1" id="Filled" xmlns="http://www.w3.org/2000/svg" xmlns:xlink="http://www.w3.org/1999/xlink" x="0px" y="0px"
	 viewBox="0 0 512 512" style="enable-background:new 0 0 512 512;" xml:space="preserve">
<style type="text/css">
	.st0{fill:#555555;}
</style>
<path class="st0" d="M256,0C114.6,0,0,114.6,0,256s114.6,256,256,256s256-114.6,256-256C511.8,114.7,397.3,0.2,256,0z M324.7,149.3
	H187.3c18.1-35.7,41.3-68.7,68.7-97.9C283.5,80.6,306.6,113.6,324.7,149.3z M341.8,192c6.6,20.7,10,42.3,10.2,64
	c-0.2,21.7-3.6,43.3-10.2,64H170.2c-6.6-20.7-10-42.3-10.2-64c0.2-21.7,3.6-43.3,10.2-64H341.8z M200.5,50.3
	c-24.6,30.1-44.9,63.4-60.3,99.1H71.5C99.8,100.6,146.2,65,200.5,50.3z M42.7,256c0-21.7,3.3-43.3,9.8-64h73.4
	c-5.5,20.9-8.4,42.4-8.5,64c0.1,21.6,3,43.1,8.5,64H52.5C46,299.3,42.7,277.7,42.7,256z M71.5,362.7h68.7
	c15.4,35.7,35.7,69,60.3,99.1C146.2,447,99.8,411.4,71.5,362.7z M187.3,362.7h137.5c-18.1,35.7-41.3,68.7-68.7,97.9
	C228.5,431.4,205.4,398.4,187.3,362.7z M311.6,461.7c24.5-30.1,44.8-63.4,60.2-99.1h68.7C412.2,411.4,365.9,447,311.6,461.7
	L311.6,461.7z M469.3,256c0,21.7-3.3,43.3-9.8,64h-73.4c5.5-20.9,8.4-42.4,8.5-64c-0.1-21.6-3-43.1-8.5-64h73.3
	C466,212.7,469.3,234.3,469.3,256z M371.8,149.3c-15.4-35.6-35.6-69-60.2-99.1c54.3,14.8,100.6,50.4,128.9,99.1H371.8z"/>
</svg>
