<?xml version="1.0" encoding="utf-8"?>
<!-- Generator: Adobe Illustrator 28.1.0, SVG Export Plug-In . SVG Version: 6.00 Build 0)  -->
<svg version="1.1" id="Warstwa_1" xmlns="http://www.w3.org/2000/svg" xmlns:xlink="http://www.w3.org/1999/xlink" x="0px" y="0px"
	 viewBox="0 0 111.51 28.35" style="enable-background:new 0 0 111.51 28.35;" xml:space="preserve">
<style type="text/css">
	.st0{fill:url(#SVGID_1_);}
</style>
<g>
	<g>
		<path d="M46.55,9.62c-0.56,2.44-2.39,4.22-5.65,4.22c-4.18,0-6.21-3.03-6.21-6.85C34.69,3.3,36.76,0,41.01,0
			c3.45,0,5.18,2,5.53,4.25h-2.53c-0.35-1.18-1.16-2.24-3.09-2.24c-2.6,0-3.62,2.34-3.62,4.89c0,2.4,0.92,4.93,3.7,4.93
			c1.96,0,2.66-1.25,3.01-2.21H46.55z"/>
		<path d="M55.93,13.66V8.84c0-0.14-0.02-0.28-0.1-0.4l-4.67-8.24h2.86c1.1,2.08,2.65,5.05,3.31,6.41c0.58-1.33,2.24-4.39,3.35-6.41
			h2.65l-4.76,8.22c-0.06,0.09-0.1,0.16-0.1,0.4v4.84H55.93z"/>
		<path d="M68.75,0.19h5.63c3.12,0,4.38,1.63,4.38,3.41c0,1.54-0.84,2.53-1.79,2.92c0.91,0.33,2.19,1.28,2.19,3.12
			c0,2.38-1.85,4-4.6,4h-5.81V0.19z M74.05,5.6c1.58,0,2.22-0.67,2.22-1.74c0-1.06-0.79-1.68-2.06-1.68h-2.98V5.6H74.05z
			 M71.22,11.67h2.87c1.61,0,2.48-0.7,2.48-2.08c0-1.21-0.78-2.01-2.62-2.01h-2.74V11.67z"/>
		<path d="M94.58,7.68h-6.52v3.88h7.19l-0.3,2.09H85.6V0.19h9.27v2.09h-6.82v3.3h6.52V7.68z"/>
		<path d="M103.87,8.08v5.57h-2.47V0.19h5.69c2.88,0,4.42,1.57,4.42,3.66c0,1.79-0.99,2.8-2.07,3.18c0.82,0.26,1.81,1,1.81,3.39
			v0.63c0,0.92-0.01,1.99,0.19,2.6h-2.42c-0.24-0.58-0.26-1.61-0.26-2.98v-0.23c0-1.63-0.43-2.37-2.68-2.37H103.87z M103.87,6.04
			h2.61c1.76,0,2.47-0.66,2.47-1.92c0-1.21-0.79-1.89-2.36-1.89h-2.72V6.04z"/>
		<path d="M36.06,25.74c0.21,0.93,0.86,1.37,1.94,1.37c1.12,0,1.58-0.48,1.58-1.17c0-0.76-0.42-1.12-1.98-1.49
			c-2.24-0.53-2.86-1.33-2.86-2.51c0-1.43,1.06-2.46,3.07-2.46c2.21,0,3.1,1.22,3.22,2.43h-1.63c-0.11-0.61-0.47-1.21-1.63-1.21
			c-0.86,0-1.36,0.37-1.36,1.05c0,0.67,0.41,0.94,1.84,1.28c2.49,0.59,3.01,1.54,3.01,2.71c0,1.51-1.14,2.6-3.36,2.6
			c-2.18,0-3.26-1.12-3.46-2.6H36.06z"/>
		<path d="M51.1,24.4h-4.18v2.49h4.61l-0.2,1.34h-5.99V19.6h5.94v1.34h-4.37v2.12h4.18V24.4z"/>
		<path d="M62.62,25.65c-0.36,1.56-1.53,2.7-3.62,2.7c-2.69,0-3.98-1.94-3.98-4.39c0-2.36,1.32-4.48,4.05-4.48
			c2.21,0,3.32,1.29,3.54,2.72H61c-0.22-0.76-0.74-1.44-1.97-1.44c-1.66,0-2.32,1.51-2.32,3.13c0,1.54,0.59,3.16,2.37,3.16
			c1.26,0,1.71-0.8,1.93-1.41H62.62z"/>
		<path d="M68.26,19.6v5.16c0,1.79,0.94,2.3,1.93,2.3c1.15,0,1.9-0.59,1.9-2.3V19.6h1.62v5.08c0,2.9-1.66,3.67-3.54,3.67
			c-1.9,0-3.54-0.81-3.54-3.61V19.6H68.26z"/>
		<path d="M79.83,24.66v3.57h-1.58V19.6h3.65c1.85,0,2.83,1.01,2.83,2.35c0,1.15-0.63,1.79-1.33,2.04c0.52,0.17,1.16,0.64,1.16,2.17
			v0.41c0,0.59-0.01,1.27,0.12,1.66h-1.55c-0.15-0.37-0.16-1.03-0.16-1.91v-0.15c0-1.04-0.27-1.52-1.72-1.52H79.83z M79.83,23.35
			h1.67c1.13,0,1.58-0.43,1.58-1.23c0-0.78-0.51-1.21-1.51-1.21h-1.74V23.35z"/>
		<path d="M90.54,19.6v8.63h-1.62V19.6H90.54z"/>
		<path d="M96.89,20.94h-2.68V19.6h6.98v1.34h-2.68v7.29h-1.62V20.94z"/>
		<path d="M106.77,28.23v-3.09c0-0.09-0.01-0.18-0.07-0.26l-2.99-5.28h1.83c0.71,1.34,1.7,3.24,2.12,4.11
			c0.37-0.85,1.44-2.81,2.15-4.11h1.7l-3.05,5.27c-0.04,0.05-0.07,0.1-0.07,0.26v3.1H106.77z"/>
	</g>
	<linearGradient id="SVGID_1_" gradientUnits="userSpaceOnUse" x1="0" y1="14.1223" x2="28.1365" y2="14.1223">
		<stop  offset="5.540901e-07" style="stop-color:#E30613"/>
		<stop  offset="1" style="stop-color:#EF7D00"/>
	</linearGradient>
	<path class="st0" d="M0,0.05v14.07c0,7.66,6.41,14.07,14.07,14.07c7.84,0,14.07-6.41,14.07-14.07V0.05H0z M25.29,14.12
		c0,6.05-5.16,11.04-11.22,11.04c-6.06,0-11.04-4.99-11.04-11.04V2.9h22.26V14.12z"/>
</g>
</svg>
