<?xml version="1.0" encoding="UTF-8"?>
<svg id="Warstwa_2" data-name="Warstwa 2" xmlns="http://www.w3.org/2000/svg" viewBox="0 0 1535.85 222.12">
  <defs>
    <style>
      .cls-1 {
        fill: #fff;
      }
    </style>
  </defs>
  <g id="Warstwa_1-2" data-name="Warstwa 1">
    <g>
      <path class="cls-1" d="M59.12,219.17L0,2.96h26.6l45.19,176.1h2.11L119.93,2.96h29.56l46.03,176.1h2.11L242.82,2.96h26.6l-59.12,216.21h-27.03l-47.72-172.29h-1.69l-47.72,172.29h-27.03Z"/>
      <path class="cls-1" d="M474.23,111.06c0,22.8-4.12,42.51-12.35,59.12-8.23,16.61-19.53,29.42-33.89,38.43-14.36,9.01-30.76,13.51-49.2,13.51s-34.84-4.5-49.2-13.51c-14.36-9.01-25.65-21.82-33.89-38.43-8.23-16.61-12.35-36.32-12.35-59.12s4.12-42.51,12.35-59.12c8.23-16.61,19.53-29.42,33.89-38.43,14.36-9.01,30.76-13.51,49.2-13.51s34.84,4.5,49.2,13.51c14.36,9.01,25.65,21.82,33.89,38.43,8.23,16.61,12.35,36.32,12.35,59.12ZM448.89,111.06c0-18.72-3.11-34.52-9.34-47.4-6.23-12.88-14.64-22.63-25.23-29.24-10.59-6.62-22.43-9.92-35.53-9.92s-24.93,3.31-35.52,9.92c-10.59,6.62-19,16.36-25.23,29.24-6.23,12.88-9.34,28.68-9.34,47.4s3.11,34.52,9.34,47.4c6.23,12.88,14.64,22.63,25.23,29.24,10.59,6.62,22.43,9.92,35.52,9.92s24.93-3.31,35.53-9.92c10.59-6.61,19-16.36,25.23-29.24,6.23-12.88,9.34-28.68,9.34-47.4Z"/>
      <path class="cls-1" d="M600.91,2.96h26.18v154.56c0,13.79-2.53,25.51-7.6,35.16-5.07,9.64-12.21,16.96-21.43,21.96-9.22,5-20.1,7.5-32.62,7.5-11.82,0-22.35-2.16-31.57-6.49-9.22-4.33-16.47-10.5-21.75-18.53-5.28-8.02-7.92-17.56-7.92-28.61h25.76c0,6.12,1.53,11.45,4.59,15.99s7.27,8.08,12.62,10.61c5.35,2.53,11.44,3.8,18.26,3.8,7.53,0,13.94-1.58,19.21-4.75s9.31-7.83,12.09-13.99c2.78-6.16,4.17-13.71,4.17-22.65V2.96Z"/>
      <path class="cls-1" d="M853.44,70.52h-26.18c-1.55-7.53-4.24-14.15-8.08-19.85-3.84-5.7-8.48-10.5-13.94-14.41-5.46-3.91-11.49-6.84-18.11-8.82-6.62-1.97-13.51-2.96-20.69-2.96-13.09,0-24.93,3.31-35.52,9.92-10.59,6.62-19,16.36-25.23,29.24-6.23,12.88-9.34,28.68-9.34,47.4s3.11,34.52,9.34,47.4c6.23,12.88,14.64,22.63,25.23,29.24,10.59,6.62,22.43,9.92,35.52,9.92,7.18,0,14.08-.98,20.69-2.96,6.61-1.97,12.65-4.91,18.11-8.82,5.45-3.91,10.1-8.73,13.94-14.46,3.84-5.74,6.53-12.33,8.08-19.79h26.18c-1.97,11.05-5.56,20.94-10.77,29.67-5.21,8.73-11.68,16.14-19.43,22.22-7.74,6.09-16.42,10.72-26.02,13.88-9.61,3.17-19.87,4.75-30.77,4.75-18.44,0-34.84-4.5-49.2-13.51-14.36-9.01-25.65-21.82-33.89-38.43-8.23-16.61-12.35-36.32-12.35-59.12s4.12-42.51,12.35-59.12c8.23-16.61,19.53-29.42,33.89-38.43,14.36-9.01,30.76-13.51,49.2-13.51,10.91,0,21.17,1.58,30.77,4.75,9.61,3.17,18.28,7.8,26.02,13.88,7.74,6.09,14.22,13.48,19.43,22.17,5.21,8.69,8.8,18.6,10.77,29.72Z"/>
      <path class="cls-1" d="M921.85,2.96v216.21h-26.18V2.96h26.18Z"/>
      <path class="cls-1" d="M974.21,219.17V2.96h130.49v23.23h-104.31v73.06h97.55v23.23h-97.55v73.48h106v23.23h-132.18Z"/>
      <path class="cls-1" d="M1325.98,70.52h-26.18c-1.55-7.53-4.24-14.15-8.08-19.85-3.84-5.7-8.48-10.5-13.94-14.41-5.46-3.91-11.49-6.84-18.11-8.82-6.62-1.97-13.51-2.96-20.69-2.96-13.09,0-24.93,3.31-35.53,9.92-10.59,6.62-19,16.36-25.23,29.24s-9.34,28.68-9.34,47.4,3.12,34.52,9.34,47.4,14.64,22.63,25.23,29.24c10.59,6.62,22.43,9.92,35.53,9.92,7.18,0,14.08-.98,20.69-2.96,6.61-1.97,12.65-4.91,18.11-8.82,5.45-3.91,10.1-8.73,13.94-14.46,3.84-5.74,6.53-12.33,8.08-19.79h26.18c-1.97,11.05-5.56,20.94-10.77,29.67-5.21,8.73-11.68,16.14-19.43,22.22-7.74,6.09-16.42,10.72-26.02,13.88s-19.87,4.75-30.77,4.75c-18.44,0-34.84-4.5-49.2-13.51-14.36-9.01-25.65-21.82-33.89-38.43-8.23-16.61-12.35-36.32-12.35-59.12s4.12-42.51,12.35-59.12c8.24-16.61,19.53-29.42,33.89-38.43,14.36-9.01,30.76-13.51,49.2-13.51,10.91,0,21.17,1.58,30.77,4.75,9.61,3.17,18.28,7.8,26.02,13.88,7.74,6.09,14.22,13.48,19.43,22.17,5.21,8.69,8.8,18.6,10.77,29.72Z"/>
      <path class="cls-1" d="M1368.2,219.17V2.96h26.18v96.28h115.29V2.96h26.18v216.21h-26.18v-96.7h-115.29v96.7h-26.18Z"/>
    </g>
  </g>
</svg>