<?xml version="1.0" encoding="UTF-8"?>
<svg id="Warstwa_2" data-name="Warstwa 2" xmlns="http://www.w3.org/2000/svg" viewBox="0 0 29.1 9.26">
  <defs>
    <style>
      .cls-1 {
        fill:rgb(255, 255, 255);
      }
    </style>
  </defs>
  <g id="Warstwa_1-2" data-name="Warstwa 1">
    <g>
      <path class="cls-1" d="M2.48,9.12l-.9-.07c-.23,0-.5.02-.8.05-.3.04-.45.05-.46.05-.22,0-.32-.06-.32-.18,0-.08.03-.14.08-.17.05-.03.14-.06.25-.1.12-.03.21-.07.29-.11.11-.06.19-.19.22-.37.04-.18.11-.76.22-1.73.11-.98.19-1.7.25-2.16s.11-.89.16-1.28c.05-.39.1-.72.13-.99.04-.27.05-.43.05-.47,0-.39-.25-.61-.74-.65-.26-.02-.38-.07-.38-.15s.03-.14.08-.17c.05-.03.15-.04.28-.04l.97.07c.2,0,.49-.02.88-.05s.76-.05,1.12-.05.62,0,.79.02c.54.05.98.24,1.3.59.32.34.48.75.48,1.22s-.16.91-.49,1.32c-.32.41-.8.73-1.42.94-.07.02-.11.09-.11.19s.21.62.62,1.55c.41.93.72,1.53.93,1.81.28.38.61.58.98.58.15,0,.23.04.23.13,0,.18-.26.28-.77.28s-.87-.07-1.05-.22c-.18-.15-.39-.48-.62-.98-.23-.51-.45-1.05-.66-1.62-.21-.57-.37-.96-.46-1.16-.1-.2-.19-.31-.29-.31h-.55s-.42,0-.42,0c-.09,0-.15.07-.19.2-.04.14-.08.42-.12.85l-.17,1.69-.04.42c0,.18.06.33.17.44.11.11.23.18.36.21.36.07.54.16.54.26s-.14.16-.41.16ZM2.26,4.14c0,.21.12.31.37.31h.17c.71,0,1.2-.03,1.46-.09.26-.06.48-.21.67-.45.3-.4.46-.83.46-1.3s-.15-.86-.45-1.17c-.3-.31-.72-.47-1.27-.47-.36,0-.63.05-.8.14-.18.1-.28.31-.3.64s-.06.68-.11,1.06c-.05.38-.1.69-.13.92-.04.23-.05.37-.05.41Z"/>
      <path class="cls-1" d="M7.52,5.56c0-.3.13-.65.4-1.03.27-.38.59-.58.95-.58.13,0,.23.07.3.2.1.18.16.42.16.74s-.07.86-.22,1.64c-.15.78-.22,1.27-.22,1.46s.02.32.07.38c.05.06.09.09.14.09s.09,0,.13-.02c.04-.01.09-.03.14-.06.05-.03.09-.06.13-.09.04-.03.09-.08.15-.13s.11-.1.14-.14c.04-.04.09-.1.16-.17s.12-.14.16-.19c.12-.14.24-.29.36-.43.57-.69,1.03-1.72,1.39-3.11.03-.13.16-.19.4-.19s.35.09.35.26c0,.08-.12.68-.37,1.81s-.37,1.8-.37,2,.09.31.26.31c.34,0,.61-.22.83-.67.07-.14.14-.22.2-.22.11,0,.17.1.17.29s-.19.49-.56.88c-.38.4-.81.59-1.31.59-.24,0-.36-.22-.36-.65,0-.4.04-.8.11-1.2.07-.4.11-.63.11-.68s-.01-.08-.04-.08-.06.03-.09.08c-.03.05-.08.14-.16.28-.07.13-.16.27-.26.41-.87,1.24-1.64,1.86-2.3,1.86-.27,0-.41-.25-.41-.74s.09-1.13.27-1.91c.18-.78.27-1.26.27-1.44s-.08-.28-.24-.28c-.06,0-.14.07-.25.21-.11.14-.2.28-.26.43-.06.15-.13.22-.21.22s-.11-.05-.11-.16Z"/>
      <path class="cls-1" d="M14.98.58l-.49.02c-.1,0-.16-.01-.19-.04-.03-.03-.04-.06-.04-.11s0-.08.02-.1c.01-.02.03-.05.07-.07.03-.02.06-.04.09-.05.03-.01.07-.02.13-.03s.11-.02.16-.02c.05,0,.12-.02.2-.02.09,0,.18-.02.28-.03.1-.01.2-.03.32-.05.22-.05.35-.07.37-.07.15,0,.23.07.23.22,0,.02-.13.71-.38,2.08-.26,1.37-.38,2.17-.38,2.41s.02.35.05.35.13-.09.3-.28c.17-.18.41-.37.73-.56.32-.19.69-.28,1.1-.28s.74.15.97.44c.23.3.34.66.34,1.08,0,.87-.33,1.72-.98,2.54-.65.82-1.42,1.24-2.3,1.24-.39,0-.73-.09-1.03-.26-.29-.17-.44-.42-.44-.75,0-.38.04-.76.11-1.14.21-1.1.39-2.15.55-3.15.16-1,.28-1.73.37-2.18.09-.45.14-.8.14-1.04,0-.1-.1-.14-.3-.14ZM14.9,8.09c0,.54.31.82.92.82.53,0,1.02-.34,1.49-1.03s.7-1.38.7-2.08c0-.34-.11-.62-.34-.86-.23-.24-.51-.36-.83-.36-.14,0-.28.02-.43.06-.15.04-.33.15-.53.34-.21.19-.37.43-.48.73-.11.3-.21.64-.29,1.03-.14.64-.2,1.09-.2,1.36Z"/>
      <path class="cls-1" d="M20.83,9.26c-.46,0-.78-.14-.95-.41-.17-.28-.26-.68-.26-1.21s.23-1.17.7-1.9c.46-.74,1-1.25,1.6-1.54.3-.14.55-.22.75-.22s.41.02.62.07.37.07.48.07.23-.1.35-.29.23-.29.32-.29.13.05.13.14-.03.24-.1.43c-.07.19-.11.32-.13.38-.02.06-.1.54-.26,1.43-.16.89-.24,1.44-.24,1.64s.04.38.12.53c.08.15.18.23.31.23s.29-.13.47-.39c.19-.26.32-.39.38-.39s.1.06.1.17-.08.29-.23.51c-.16.22-.35.44-.58.64-.23.2-.44.31-.62.31s-.34-.11-.45-.34c-.11-.22-.18-.45-.2-.67s-.03-.34-.04-.34c0,0-.05.05-.14.15-.08.1-.2.22-.34.36-.14.14-.29.28-.46.41-.42.34-.87.52-1.33.52ZM20.52,7c-.04.24-.06.48-.06.72s.09.45.27.62c.18.18.43.26.74.26s.61-.13.89-.38.46-.47.56-.67.2-.52.3-1c.22-1.04.32-1.65.32-1.82s-.09-.29-.26-.36c-.18-.07-.37-.1-.59-.1s-.46.09-.74.26c-.28.18-.51.41-.68.71-.42.69-.66,1.27-.74,1.74Z"/>
      <path class="cls-1" d="M26.99,9.23c-.34,0-.65-.06-.94-.19-.28-.12-.43-.33-.43-.61s.13-.43.38-.43c.14,0,.25.04.34.13s.15.18.19.28c.04.1.11.19.22.28s.25.13.43.13.34-.03.49-.1c.14-.06.24-.14.3-.24.1-.17.14-.32.14-.44s-.02-.25-.05-.35c-.03-.11-.11-.23-.22-.38-.12-.14-.19-.24-.23-.28-.26-.26-.46-.46-.62-.62-.16-.16-.27-.28-.35-.38s-.13-.18-.16-.25c-.09-.2-.13-.4-.13-.6,0-.4.15-.73.46-.98s.7-.38,1.17-.38c.74,0,1.12.21,1.12.62,0,.11-.04.2-.11.28-.1.09-.21.13-.35.13s-.29-.11-.46-.34-.33-.34-.49-.34c-.42,0-.64.21-.64.64,0,.25.2.56.61.94.22.2.33.31.35.34.02.02.09.1.2.22.12.12.2.22.24.28.04.06.1.15.17.27.13.2.19.41.19.64s-.03.42-.08.58c-.06.16-.15.33-.27.51-.12.18-.32.33-.58.45-.26.12-.57.18-.91.18Z"/>
    </g>
  </g>
</svg>