<?xml version="1.0" encoding="UTF-8"?>
<svg id="Warstwa_2" data-name="Warstwa 2" xmlns="http://www.w3.org/2000/svg" viewBox="0 0 771.37 245.57">
  <defs>
    <style>
      .cls-1 {
        fill: #fff;
      }
    </style>
  </defs>
  <g id="Warstwa_1-2" data-name="Warstwa 1">
    <g>
      <path class="cls-1" d="M65.84,241.75l-23.86-1.91c-6.15,0-13.2.48-21.15,1.43-7.95.95-12.04,1.43-12.25,1.43-5.73,0-8.59-1.59-8.59-4.77,0-2.12.69-3.6,2.07-4.45,1.38-.84,3.6-1.69,6.68-2.54,3.07-.84,5.67-1.8,7.79-2.86,2.97-1.7,4.93-4.93,5.88-9.7s2.86-20.09,5.73-45.96c2.86-25.87,5.04-44.96,6.52-57.26,1.48-12.3,2.91-23.64,4.29-34.04,1.38-10.39,2.54-19.14,3.5-26.24.95-7.1,1.43-11.29,1.43-12.56,0-10.39-6.58-16.11-19.72-17.18-6.79-.42-10.18-1.75-10.18-3.98s.69-3.71,2.07-4.45c1.38-.74,3.87-1.11,7.47-1.11l25.77,1.91c5.3,0,13.09-.42,23.38-1.27,10.28-.84,20.14-1.27,29.58-1.27s16.38.21,20.84.64c14.42,1.27,25.87,6.47,34.35,15.59,8.48,9.12,12.72,19.88,12.72,32.29s-4.29,24.07-12.88,34.99c-8.59,10.92-21.15,19.24-37.69,24.97-1.91.64-2.86,2.28-2.86,4.93s5.46,16.33,16.38,41.03c10.92,24.71,19.13,40.67,24.65,47.87,7.42,10.18,16.11,15.27,26.08,15.27,4.03,0,6.04,1.17,6.04,3.5,0,4.88-6.84,7.32-20.52,7.32s-22.96-1.96-27.83-5.88c-4.88-3.92-10.34-12.61-16.38-26.08-6.04-13.46-11.88-27.78-17.5-42.94-5.62-15.16-9.7-25.45-12.25-30.85-2.54-5.41-5.09-8.11-7.63-8.11l-14.63.32-11.13-.32c-2.34,0-4.03,1.8-5.09,5.41-1.06,3.61-2.12,11.13-3.18,22.58l-4.45,44.85-.95,11.13c0,4.88,1.48,8.75,4.45,11.61,2.97,2.86,6.15,4.72,9.54,5.57,9.54,1.91,14.31,4.24,14.31,7s-3.61,4.13-10.82,4.13ZM59.8,109.74c0,5.52,3.29,8.27,9.86,8.27h4.45c18.87,0,31.75-.8,38.65-2.39,6.89-1.59,12.77-5.57,17.65-11.93,8.06-10.6,12.09-22.11,12.09-34.51s-3.98-22.74-11.93-31.01c-7.95-8.27-19.14-12.41-33.56-12.41-9.54,0-16.65,1.27-21.31,3.82-4.67,2.54-7.32,8.17-7.95,16.86-.64,8.7-1.64,18.08-3.02,28.15-1.38,10.07-2.54,18.19-3.5,24.33-.95,6.15-1.43,9.76-1.43,10.82Z"/>
      <path class="cls-1" d="M199.44,147.28c0-8.06,3.55-17.18,10.66-27.36,7.1-10.18,15.53-15.27,25.29-15.27,3.39,0,6.04,1.8,7.95,5.41,2.75,4.67,4.13,11.19,4.13,19.56s-1.96,22.9-5.88,43.58c-3.93,20.68-5.88,33.56-5.88,38.65s.64,8.43,1.91,10.02c1.27,1.59,2.49,2.39,3.66,2.39s2.33-.16,3.5-.48c1.16-.32,2.39-.85,3.66-1.59,1.27-.74,2.44-1.54,3.5-2.39,1.06-.84,2.39-2.01,3.98-3.5,1.59-1.48,2.86-2.75,3.82-3.82.95-1.06,2.33-2.59,4.13-4.61,1.8-2.01,3.23-3.66,4.29-4.93,3.18-3.82,6.36-7.63,9.54-11.45,15.05-18.24,27.36-45.7,36.9-82.39.85-3.39,4.34-5.09,10.5-5.09s9.22,2.34,9.22,7c0,2.12-3.24,18.13-9.7,48.03-6.47,29.9-9.7,47.61-9.7,53.12s2.33,8.27,7,8.27c8.91,0,16.22-5.93,21.95-17.81,1.91-3.82,3.71-5.73,5.41-5.73,2.97,0,4.45,2.54,4.45,7.63s-4.99,12.88-14.95,23.38c-9.97,10.5-21.53,15.75-34.67,15.75-6.36,0-9.54-5.73-9.54-17.18,0-10.6.95-21.2,2.86-31.81,1.91-10.6,2.86-16.59,2.86-17.97s-.37-2.07-1.11-2.07-1.54.69-2.39,2.07c-.85,1.38-2.23,3.82-4.14,7.32-1.91,3.5-4.24,7.16-7,10.97-23.12,32.87-43.47,49.3-61.07,49.3-7.21,0-10.82-6.57-10.82-19.72s2.39-30,7.16-50.58c4.77-20.57,7.16-33.29,7.16-38.17s-2.12-7.32-6.36-7.32c-1.49,0-3.71,1.86-6.68,5.57-2.97,3.71-5.3,7.53-7,11.45-1.7,3.93-3.55,5.88-5.57,5.88s-3.02-1.38-3.02-4.13Z"/>
      <path class="cls-1" d="M396.98,15.27l-13.04.64c-2.54,0-4.19-.37-4.93-1.11-.75-.74-1.11-1.7-1.11-2.86s.16-2.07.48-2.7c.32-.64.9-1.22,1.75-1.75.84-.53,1.64-.95,2.39-1.27.74-.32,1.91-.58,3.5-.79,1.59-.21,3.02-.42,4.29-.64,1.27-.21,3.07-.42,5.41-.64,2.33-.21,4.77-.48,7.32-.8,2.54-.32,5.41-.79,8.59-1.43,5.93-1.27,9.22-1.91,9.86-1.91,4.03,0,6.04,1.91,6.04,5.73,0,.43-3.39,18.82-10.18,55.19-6.79,36.37-10.18,57.63-10.18,63.78s.42,9.22,1.27,9.22,3.5-2.44,7.95-7.32c4.45-4.88,10.92-9.81,19.4-14.79,8.48-4.98,18.24-7.47,29.26-7.47s19.56,3.93,25.61,11.77c6.04,7.85,9.07,17.39,9.07,28.63,0,23.12-8.64,45.6-25.92,67.44-17.29,21.84-37.59,32.76-60.91,32.76-10.39,0-19.46-2.28-27.2-6.84-7.74-4.56-11.61-11.18-11.61-19.88,0-10.18.95-20.25,2.86-30.22,5.51-29.05,10.34-56.88,14.47-83.5,4.13-26.61,7.42-45.91,9.86-57.89,2.43-11.98,3.66-21.15,3.66-27.51,0-2.54-2.65-3.82-7.95-3.82ZM395.07,214.39c0,14.42,8.16,21.63,24.49,21.63,14,0,27.14-9.07,39.44-27.2,12.3-18.13,18.45-36.53,18.45-55.19,0-8.91-3.02-16.54-9.07-22.9-6.04-6.36-13.42-9.54-22.11-9.54-3.61,0-7.37.53-11.29,1.59-3.93,1.06-8.64,4.08-14.15,9.07-5.52,4.99-9.76,11.45-12.72,19.4-2.97,7.95-5.52,17.02-7.63,27.2-3.61,16.97-5.41,28.95-5.41,35.94Z"/>
      <path class="cls-1" d="M552.2,245.57c-12.3,0-20.73-3.66-25.29-10.97-4.56-7.32-6.84-18.02-6.84-32.13s6.15-30.9,18.45-50.42c12.3-19.51,26.4-33.08,42.31-40.72,7.84-3.82,14.47-5.73,19.88-5.73s10.92.59,16.54,1.75c5.62,1.17,9.86,1.75,12.72,1.75s5.99-2.59,9.38-7.79c3.39-5.19,6.2-7.79,8.43-7.79s3.34,1.27,3.34,3.82-.9,6.36-2.7,11.45c-1.8,5.09-2.92,8.48-3.34,10.18-.43,1.7-2.76,14.37-7,38.01-4.25,23.65-6.36,38.12-6.36,43.42s1.06,9.97,3.18,14c2.12,4.03,4.88,6.04,8.27,6.04s7.58-3.44,12.56-10.34c4.98-6.89,8.38-10.34,10.18-10.34s2.7,1.54,2.7,4.61-2.07,7.58-6.2,13.52c-4.14,5.94-9.22,11.61-15.27,17.02s-11.56,8.11-16.54,8.11-8.96-2.97-11.93-8.91c-2.97-5.93-4.72-11.87-5.25-17.81-.53-5.93-.9-8.91-1.11-8.91s-1.43,1.33-3.66,3.98c-2.23,2.65-5.2,5.83-8.91,9.54-3.71,3.71-7.79,7.37-12.25,10.97-11.24,9.12-23.01,13.68-35.31,13.68ZM543.93,185.45c-1.06,6.36-1.59,12.72-1.59,19.08s2.39,11.88,7.16,16.54c4.77,4.67,11.34,7,19.72,7s16.22-3.34,23.54-10.02c7.32-6.68,12.25-12.57,14.79-17.65,2.54-5.09,5.19-13.89,7.95-26.4,5.73-27.57,8.59-43.63,8.59-48.19s-2.34-7.74-7-9.54c-4.67-1.8-9.86-2.7-15.59-2.7s-12.3,2.34-19.72,7c-7.43,4.67-13.47,10.92-18.13,18.77-11.03,18.24-17.6,33.61-19.72,46.12Z"/>
      <path class="cls-1" d="M715.54,244.61c-9.02,0-17.29-1.65-24.81-4.93-7.53-3.29-11.29-8.69-11.29-16.22s3.39-11.29,10.18-11.29c3.6,0,6.57,1.17,8.91,3.5,2.33,2.34,4.03,4.83,5.09,7.47,1.06,2.65,2.97,5.14,5.73,7.48,2.75,2.34,6.52,3.5,11.29,3.5s9.07-.84,12.88-2.54c3.82-1.7,6.47-3.82,7.95-6.36,2.54-4.45,3.82-8.37,3.82-11.77s-.43-6.52-1.27-9.38c-.85-2.86-2.81-6.2-5.88-10.02-3.08-3.82-5.14-6.25-6.2-7.32-6.79-6.79-12.25-12.25-16.38-16.38s-7.21-7.48-9.22-10.02c-2.02-2.54-3.45-4.77-4.29-6.68-2.34-5.3-3.5-10.6-3.5-15.9,0-10.6,4.08-19.25,12.25-25.92,8.16-6.68,18.5-10.02,31.01-10.02,19.72,0,29.58,5.52,29.58,16.54,0,2.97-.95,5.41-2.86,7.32-2.54,2.34-5.68,3.5-9.38,3.5s-7.74-2.97-12.09-8.91c-4.35-5.93-8.64-8.91-12.88-8.91-11.24,0-16.86,5.62-16.86,16.86,0,6.58,5.41,14.85,16.22,24.81,5.73,5.3,8.85,8.27,9.38,8.91.53.64,2.33,2.6,5.41,5.88,3.07,3.29,5.19,5.73,6.36,7.32,1.16,1.59,2.7,3.98,4.61,7.16,3.39,5.3,5.09,10.92,5.09,16.86s-.75,11.03-2.23,15.27c-1.49,4.24-3.87,8.75-7.16,13.52-3.29,4.77-8.43,8.75-15.43,11.93s-15,4.77-24.02,4.77Z"/>
    </g>
  </g>
</svg>