<?xml version="1.0" encoding="UTF-8"?>
<svg id="Warstwa_2" data-name="Warstwa 2" xmlns="http://www.w3.org/2000/svg" viewBox="0 0 2834.65 1984.25">
  <defs>
    <style>
      .cls-1 {
        fill: #1d1d1b;
      }

      .cls-2 {
        fill: #fff;
      }

      .cls-3 {
        fill: #e30613;
      }

      .cls-4 {
        fill: #4eb057;
      }

      .cls-5 {
        fill: #009640;
      }
    </style>
  </defs>
  <g id="Warstwa_4" data-name="Warstwa 4">
    <rect class="cls-4" x="425.2" y="-425.2" width="1984.25" height="2834.65" transform="translate(2409.45 -425.2) rotate(90)"/>
  </g>
  <g id="Logotypy_i_sponsorzy" data-name="Logotypy i sponsorzy">
    <g>
      <g>
        <path class="cls-1" d="M1045.99,495.1v-85.54s13.2,0,13.2,0v85.54s-13.2,0-13.2,0ZM1056.99,469.2l-.73-14.79,44.84-44.84h17.36s-61.47,59.64-61.47,59.64ZM1102.69,495.1l-32.75-43.75,9.77-8.43,39.47,52.18h-16.49Z"/>
        <path class="cls-1" d="M1153.65,495.1l-27.25-85.54h14.05s16.49,53.53,16.49,53.53c.5,1.3.94,2.83,1.35,4.58.41,1.75.77,3.52,1.1,5.32.32,1.79.62,3.46.92,5.01.28,1.54.55,2.81.79,3.79l-3.55-.13c1.22-4.31,2.18-7.65,2.87-10.02.7-2.36,1.25-4.17,1.66-5.43.41-1.26.77-2.35,1.1-3.24l15.39-38.62h11.86s14.9,38.62,14.9,38.62c.82,1.95,1.53,3.89,2.14,5.8.61,1.91,1.16,3.84,1.65,5.75.5,1.91,1.02,3.93,1.59,6.05l-3.18.85c.41-2.21.71-3.93.92-5.19.2-1.26.38-2.31.55-3.12.17-.8.32-1.61.48-2.37.17-.78.43-1.77.8-3,.36-1.22.87-2.9,1.52-5.01l16.26-53.16h14.17s-27.25,85.54-27.25,85.54h-9.16s-22.61-53.53-22.61-53.53l1.1.5-21.75,53.03h-8.91Z"/>
        <path class="cls-1" d="M1253.97,495.1v-12.22s13.81,0,13.81,0v-61.1s-13.81,0-13.81,0v-12.22s40.81,0,40.81,0v12.22s-13.81,0-13.81,0v61.1s13.81,0,13.81,0v12.22s-40.81,0-40.81,0Z"/>
        <path class="cls-1" d="M1306.64,495.1l33.11-85.54h13.44s32.87,85.54,32.87,85.54h-14.04s-19.55-51.56-19.55-51.56c-.26-.57-.71-1.96-1.42-4.16-.69-2.21-1.48-4.64-2.38-7.33-.89-2.69-1.71-5.15-2.44-7.4-.74-2.23-1.22-3.69-1.47-4.34l2.81-.11c-.48,1.38-1.07,3.14-1.77,5.25-.69,2.12-1.42,4.35-2.19,6.72-.78,2.36-1.53,4.58-2.26,6.66-.74,2.08-1.35,3.8-1.84,5.19l-19.44,51.08h-13.43ZM1321.29,473.84l4.9-12.72h38.85s5.62,12.72,5.62,12.72h-49.37Z"/>
        <path class="cls-1" d="M1417.34,495.1v-72.82s-23.95,0-23.95,0v-12.72s61.83,0,61.83,0v12.72s-24.68,0-24.68,0v72.82s-13.2,0-13.2,0Z"/>
        <path class="cls-1" d="M1471.48,495.1v-85.54s13.2,0,13.2,0v85.54s-13.2,0-13.2,0ZM1482.47,469.2l-.73-14.79,44.84-44.84h17.36s-61.47,59.64-61.47,59.64ZM1528.18,495.1l-32.75-43.75,9.77-8.43,39.47,52.18h-16.49Z"/>
        <path class="cls-1" d="M1596.72,496.33c-6.02,0-11.58-1.1-16.68-3.3-5.09-2.19-9.53-5.27-13.31-9.22-3.79-3.95-6.72-8.6-8.8-13.94-2.08-5.33-3.11-11.17-3.11-17.52,0-6.36,1.03-12.21,3.11-17.54,2.08-5.34,5.01-9.99,8.8-13.94,3.79-3.94,8.23-7.03,13.31-9.22,5.1-2.19,10.66-3.3,16.68-3.3,6.03,0,11.59,1.11,16.68,3.3,5.09,2.19,9.53,5.29,13.31,9.28,3.8,3.99,6.72,8.66,8.8,13.99,2.08,5.34,3.12,11.15,3.12,17.42s-1.05,12.08-3.12,17.41c-2.08,5.33-5,10-8.8,13.99-3.79,3.99-8.23,7.09-13.31,9.28-5.09,2.21-10.65,3.3-16.68,3.3ZM1596.72,483.49c4.16,0,7.97-.78,11.43-2.32,3.47-1.56,6.45-3.72,8.98-6.54,2.53-2.81,4.5-6.11,5.93-9.9,1.43-3.79,2.14-7.92,2.14-12.4s-.71-8.62-2.14-12.41c-1.43-3.79-3.41-7.09-5.93-9.9-2.53-2.81-5.51-4.99-8.98-6.54-3.46-1.54-7.27-2.32-11.43-2.32-4.14,0-7.96.78-11.43,2.32-3.46,1.56-6.47,3.71-9.04,6.48-2.56,2.77-4.54,6.05-5.92,9.83-1.39,3.79-2.08,7.97-2.08,12.54,0,4.48.69,8.63,2.08,12.46,1.38,3.83,3.35,7.13,5.92,9.9,2.58,2.77,5.59,4.92,9.04,6.48,3.47,1.54,7.28,2.32,11.43,2.32ZM1588.42,402.84l-3.43-6.35,22.37-13.81,5.74,11.01-24.68,9.16Z"/>
        <path class="cls-1" d="M1674.7,495.1l-27.25-85.54h14.05s16.49,53.53,16.49,53.53c.5,1.3.94,2.83,1.35,4.58.41,1.75.77,3.52,1.1,5.32.32,1.79.62,3.46.92,5.01.28,1.54.55,2.81.79,3.79l-3.55-.13c1.22-4.31,2.18-7.65,2.87-10.02.7-2.36,1.25-4.17,1.66-5.43s.77-2.35,1.1-3.24l15.39-38.62h11.86s14.9,38.62,14.9,38.62c.82,1.95,1.53,3.89,2.14,5.8.61,1.91,1.16,3.84,1.65,5.75.5,1.91,1.02,3.93,1.59,6.05l-3.18.85c.41-2.21.71-3.93.92-5.19.2-1.26.38-2.31.55-3.12.17-.8.32-1.61.48-2.37.17-.78.43-1.77.8-3,.36-1.22.87-2.9,1.52-5.01l16.26-53.16h14.17s-27.25,85.54-27.25,85.54h-9.16s-22.61-53.53-22.61-53.53l1.1.5-21.75,53.03h-8.91Z"/>
        <path class="cls-1" d="M1064.2,641.74l-27.25-85.54h14.05s16.49,53.53,16.49,53.53c.5,1.3.94,2.83,1.35,4.58.41,1.75.77,3.52,1.1,5.32.32,1.79.62,3.46.92,5.01.28,1.54.55,2.81.79,3.79l-3.55-.13c1.22-4.31,2.18-7.65,2.87-10.02.7-2.36,1.25-4.17,1.66-5.43.41-1.26.77-2.35,1.1-3.24l15.39-38.62h11.86s14.9,38.62,14.9,38.62c.82,1.95,1.53,3.89,2.14,5.8.61,1.91,1.16,3.84,1.65,5.75.5,1.91,1.02,3.93,1.59,6.05l-3.18.85c.41-2.21.71-3.93.92-5.19.2-1.26.38-2.31.55-3.12.17-.8.32-1.61.48-2.37.17-.78.43-1.77.8-3,.36-1.22.87-2.9,1.52-5.01l16.26-53.16h14.17s-27.25,85.54-27.25,85.54h-9.16s-22.61-53.53-22.61-53.53l1.1.5-21.75,53.03h-8.91Z"/>
        <path class="cls-1" d="M1164.52,641.74v-12.22s13.81,0,13.81,0v-61.1s-13.81,0-13.81,0v-12.22s40.81,0,40.81,0v12.22s-13.81,0-13.81,0v61.1s13.81,0,13.81,0v12.22s-40.81,0-40.81,0Z"/>
        <path class="cls-1" d="M1260.07,642.97c-6.02,0-11.58-1.1-16.68-3.3-5.09-2.19-9.53-5.27-13.31-9.22-3.79-3.95-6.72-8.6-8.8-13.94-2.08-5.33-3.11-11.17-3.11-17.52s1.03-12.21,3.11-17.54c2.08-5.34,5.01-9.99,8.8-13.94,3.79-3.94,8.23-7.03,13.31-9.22,5.1-2.19,10.66-3.3,16.68-3.3s11.59,1.11,16.68,3.3c5.09,2.19,9.53,5.29,13.31,9.28,3.8,3.99,6.72,8.66,8.8,13.99,2.08,5.34,3.12,11.15,3.12,17.42,0,6.26-1.05,12.08-3.12,17.41-2.08,5.33-5,10-8.8,13.99-3.79,3.99-8.23,7.09-13.31,9.28-5.09,2.21-10.65,3.3-16.68,3.3ZM1260.07,630.14c4.16,0,7.97-.78,11.43-2.32,3.47-1.56,6.45-3.72,8.98-6.54,2.53-2.81,4.5-6.11,5.93-9.9,1.43-3.79,2.14-7.92,2.14-12.4s-.71-8.62-2.14-12.41c-1.43-3.79-3.41-7.09-5.93-9.9-2.53-2.81-5.51-4.99-8.98-6.54-3.46-1.54-7.27-2.32-11.43-2.32s-7.96.78-11.43,2.32c-3.46,1.56-6.47,3.71-9.04,6.48-2.56,2.77-4.54,6.05-5.92,9.83-1.39,3.79-2.08,7.97-2.08,12.54s.69,8.63,2.08,12.46c1.38,3.83,3.35,7.13,5.92,9.9,2.58,2.77,5.59,4.92,9.04,6.48,3.47,1.54,7.28,2.32,11.43,2.32Z"/>
        <path class="cls-1" d="M1346.23,642.97c-4.66,0-8.95-.61-12.89-1.84-3.95-1.22-7.54-3.07-10.75-5.56-3.23-2.49-6.1-5.56-8.62-9.22l9.04-10.39c3.99,5.71,7.82,9.65,11.49,11.86,3.66,2.19,8.02,3.29,13.07,3.29,3.1,0,5.9-.48,8.43-1.47,2.53-.97,4.53-2.32,5.99-4.03,1.45-1.71,2.19-3.66,2.19-5.87,0-1.47-.24-2.84-.74-4.14-.48-1.3-1.24-2.49-2.26-3.55-1.02-1.06-2.32-2.04-3.9-2.93-1.59-.89-3.44-1.7-5.56-2.38-2.12-.69-4.57-1.29-7.33-1.77-4.4-.89-8.23-2.08-11.49-3.55-3.25-1.47-5.98-3.3-8.19-5.5-2.19-2.19-3.83-4.71-4.88-7.51-1.06-2.82-1.59-5.97-1.59-9.48s.75-6.59,2.27-9.53c1.5-2.93,3.58-5.48,6.22-7.64,2.65-2.16,5.76-3.83,9.35-5.01,3.58-1.17,7.46-1.77,11.61-1.77,4.4,0,8.44.57,12.1,1.71,3.66,1.15,6.93,2.83,9.78,5.08,2.84,2.24,5.2,4.99,7.08,8.25l-9.28,9.16c-1.63-2.68-3.46-4.95-5.5-6.77-2.04-1.84-4.27-3.23-6.72-4.16-2.45-.93-5.05-1.4-7.82-1.4-3.18,0-5.96.48-8.32,1.47-2.36.97-4.21,2.33-5.56,4.09-1.34,1.75-2.02,3.8-2.02,6.16,0,1.72.33,3.29.98,4.71.65,1.43,1.65,2.69,3,3.79,1.34,1.11,3.15,2.08,5.43,2.93,2.28.85,5.01,1.62,8.19,2.27,4.48.97,8.47,2.22,11.98,3.72,3.49,1.5,6.48,3.28,8.91,5.32,2.45,2.03,4.3,4.31,5.56,6.84,1.26,2.53,1.9,5.25,1.9,8.19,0,5.46-1.26,10.19-3.79,14.18-2.53,3.99-6.11,7.07-10.75,9.22-4.66,2.16-10.19,3.24-16.62,3.24Z"/>
        <path class="cls-1" d="M1396.08,641.74v-85.54s13.2,0,13.2,0v85.54s-13.2,0-13.2,0ZM1407.07,615.84l-.73-14.79,44.84-44.84h17.36s-61.47,59.64-61.47,59.64ZM1452.78,641.74l-32.75-43.75,9.77-8.43,39.47,52.18h-16.49Z"/>
        <path class="cls-1" d="M1476.62,641.74l33.11-85.54h13.44s32.87,85.54,32.87,85.54h-14.04s-19.55-51.56-19.55-51.56c-.26-.57-.71-1.96-1.42-4.16-.69-2.21-1.48-4.64-2.38-7.33-.89-2.69-1.71-5.15-2.44-7.4-.74-2.23-1.22-3.69-1.47-4.34l2.81-.11c-.48,1.38-1.07,3.14-1.77,5.25-.69,2.12-1.42,4.35-2.19,6.72-.78,2.36-1.53,4.58-2.26,6.66-.74,2.08-1.35,3.8-1.84,5.19l-19.44,51.08h-13.43ZM1491.27,620.48l4.9-12.72h38.85s5.62,12.72,5.62,12.72h-49.37Z"/>
        <path class="cls-1" d="M1045.99,788.37v-85.54s35.68,0,35.68,0c5.46,0,10.06.82,13.8,2.45,3.75,1.63,6.58,4.06,8.49,7.27,1.91,3.21,2.87,7.14,2.87,11.78,0,4.64-1.28,8.6-3.84,11.86-2.58,3.25-6.13,5.5-10.7,6.72v-2.45c3.83.82,7.17,2.26,10.02,4.34,2.84,2.08,5.08,4.67,6.66,7.77,1.59,3.1,2.38,6.63,2.38,10.62s-.64,7.68-1.9,10.82c-1.26,3.14-3.14,5.76-5.61,7.88-2.49,2.12-5.48,3.72-8.99,4.83-3.49,1.1-7.49,1.65-11.96,1.65h-36.91ZM1059.19,738.27h21.74c2.45,0,4.63-.5,6.54-1.47,1.91-.98,3.42-2.32,4.51-4.03,1.11-1.72,1.66-3.67,1.66-5.87,0-3.67-1.22-6.48-3.67-8.43-2.44-1.96-5.94-2.93-10.51-2.93h-20.28s0,22.73,0,22.73ZM1059.19,775.67h22.97c3.34,0,6.17-.5,8.49-1.47,2.32-.98,4.11-2.42,5.38-4.35,1.25-1.91,1.89-4.21,1.89-6.9,0-2.53-.68-4.68-2.02-6.48-1.34-1.79-3.24-3.15-5.69-4.09-2.44-.93-5.33-1.4-8.67-1.4h-22.36s0,24.69,0,24.69Z"/>
        <path class="cls-1" d="M1165.01,789.6c-6.02,0-11.58-1.1-16.68-3.3-5.09-2.19-9.53-5.27-13.31-9.22-3.79-3.95-6.72-8.6-8.8-13.94-2.08-5.33-3.11-11.17-3.11-17.52,0-6.36,1.03-12.21,3.11-17.54,2.08-5.34,5.01-9.99,8.8-13.94,3.79-3.94,8.23-7.03,13.31-9.22,5.1-2.19,10.66-3.3,16.68-3.3s11.59,1.11,16.68,3.3c5.09,2.19,9.53,5.29,13.31,9.28,3.8,3.99,6.72,8.66,8.8,13.99,2.08,5.34,3.12,11.15,3.12,17.42,0,6.26-1.05,12.08-3.12,17.41-2.08,5.33-5,10-8.8,13.99-3.79,3.99-8.23,7.09-13.31,9.28-5.09,2.21-10.65,3.3-16.68,3.3ZM1165.01,776.77c4.16,0,7.97-.78,11.43-2.32,3.47-1.56,6.45-3.72,8.98-6.54,2.53-2.81,4.5-6.11,5.93-9.9,1.43-3.79,2.14-7.92,2.14-12.4s-.71-8.62-2.14-12.41c-1.43-3.79-3.41-7.09-5.93-9.9-2.53-2.81-5.51-4.99-8.98-6.54-3.46-1.54-7.27-2.32-11.43-2.32s-7.96.78-11.43,2.32c-3.46,1.56-6.47,3.71-9.04,6.48-2.56,2.77-4.54,6.05-5.92,9.83-1.39,3.79-2.08,7.97-2.08,12.54s.69,8.63,2.08,12.46c1.38,3.83,3.35,7.13,5.92,9.9,2.58,2.77,5.59,4.92,9.04,6.48,3.47,1.54,7.28,2.32,11.43,2.32Z"/>
        <path class="cls-1" d="M1220.12,788.37v-9.65s48.76-65.25,48.76-65.25l1.84,2.08h-47.42s0-12.72,0-12.72h61.96s0,9.53,0,9.53l-48.51,65.38-1.95-2.07h51.81s0,12.7,0,12.7h-66.47ZM1253.11,695.63c-2.86,0-4.97-.74-6.35-2.21-1.39-1.47-2.08-3.38-2.08-5.74,0-2.04.69-3.86,2.08-5.5,1.38-1.63,3.49-2.45,6.35-2.45s4.96.74,6.35,2.21c1.39,1.47,2.08,3.38,2.08,5.74,0,2.04-.69,3.86-2.08,5.5-1.39,1.63-3.51,2.45-6.35,2.45Z"/>
        <path class="cls-1" d="M1341.09,789.6c-6.02,0-11.58-1.1-16.68-3.3-5.09-2.19-9.53-5.27-13.31-9.22-3.79-3.95-6.72-8.6-8.8-13.94-2.08-5.33-3.11-11.17-3.11-17.52,0-6.36,1.03-12.21,3.11-17.54,2.08-5.34,5.01-9.99,8.8-13.94,3.79-3.94,8.23-7.03,13.31-9.22,5.1-2.19,10.66-3.3,16.68-3.3s11.59,1.11,16.68,3.3c5.09,2.19,9.53,5.29,13.31,9.28,3.8,3.99,6.72,8.66,8.8,13.99,2.08,5.34,3.12,11.15,3.12,17.42,0,6.26-1.05,12.08-3.12,17.41-2.08,5.33-5,10-8.8,13.99-3.79,3.99-8.23,7.09-13.31,9.28-5.09,2.21-10.65,3.3-16.68,3.3ZM1341.09,776.77c4.16,0,7.97-.78,11.43-2.32,3.47-1.56,6.45-3.72,8.98-6.54,2.53-2.81,4.5-6.11,5.93-9.9,1.43-3.79,2.14-7.92,2.14-12.4,0-4.49-.71-8.62-2.14-12.41-1.43-3.79-3.41-7.09-5.93-9.9-2.53-2.81-5.51-4.99-8.98-6.54-3.46-1.54-7.27-2.32-11.43-2.32-4.14,0-7.96.78-11.43,2.32-3.46,1.56-6.47,3.71-9.04,6.48-2.56,2.77-4.54,6.05-5.92,9.83-1.39,3.79-2.08,7.97-2.08,12.54,0,4.48.69,8.63,2.08,12.46,1.38,3.83,3.35,7.13,5.92,9.9,2.58,2.77,5.59,4.92,9.04,6.48,3.47,1.54,7.28,2.32,11.43,2.32Z"/>
        <path class="cls-1" d="M1400.85,788.37v-85.54s11.85,0,11.85,0l52.3,70.02-1.95,1.1c-.33-2.03-.61-4.25-.85-6.66-.24-2.4-.47-4.96-.68-7.69-.2-2.73-.37-5.62-.48-8.69-.13-3.05-.23-6.25-.31-9.59-.09-3.34-.13-6.8-.13-10.38v-28.11s13.2,0,13.2,0v85.54s-12.1,0-12.1,0l-51.44-67.45,1.34-1.71c.41,4.97.75,9.18,1.05,12.65.28,3.46.52,6.39.73,8.8.2,2.4.34,4.35.43,5.85.08,1.52.14,2.75.18,3.74.04.97.06,1.82.06,2.56v35.56s-13.2,0-13.2,0Z"/>
        <path class="cls-1" d="M1488.84,788.37l33.11-85.54h13.44s32.87,85.54,32.87,85.54h-14.04s-19.55-51.56-19.55-51.56c-.26-.57-.71-1.96-1.42-4.16-.69-2.21-1.48-4.64-2.38-7.33-.89-2.69-1.71-5.15-2.44-7.4-.74-2.23-1.22-3.69-1.47-4.34l2.81-.11c-.48,1.38-1.07,3.14-1.77,5.25-.69,2.12-1.42,4.35-2.19,6.72-.78,2.36-1.53,4.58-2.26,6.66-.74,2.08-1.35,3.8-1.84,5.19l-19.44,51.08h-13.43ZM1503.49,767.11l4.9-12.72h38.85s5.62,12.72,5.62,12.72h-49.37Z"/>
        <path class="cls-1" d="M1583.29,788.37v-85.54s36.41,0,36.41,0c4.88,0,9.39,1.2,13.51,3.61,4.11,2.4,7.4,5.66,9.83,9.77,2.45,4.12,3.67,8.74,3.67,13.88,0,4.64-1.22,8.95-3.67,12.94-2.44,3.99-5.7,7.19-9.77,9.59-4.08,2.41-8.6,3.61-13.57,3.61h-23.21s0,32.14,0,32.14h-13.2ZM1596.49,743.53h24.44c2.36,0,4.48-.6,6.35-1.77,1.87-1.19,3.34-2.82,4.4-4.9,1.06-2.07,1.59-4.37,1.59-6.9,0-2.84-.68-5.36-2.02-7.51-1.35-2.16-3.23-3.85-5.62-5.08-2.41-1.22-5.11-1.82-8.12-1.82h-21.02s0,27.98,0,27.98ZM1634.13,788.37l-21.76-38.62,13.57-3.05,24.19,41.79-16.01-.13Z"/>
        <path class="cls-1" d="M1704.02,789.6c-6.02,0-11.58-1.1-16.68-3.3-5.09-2.19-9.53-5.27-13.31-9.22-3.79-3.95-6.72-8.6-8.8-13.94-2.08-5.33-3.11-11.17-3.11-17.52,0-6.36,1.03-12.21,3.11-17.54,2.08-5.34,5.01-9.99,8.8-13.94,3.79-3.94,8.23-7.03,13.31-9.22,5.1-2.19,10.66-3.3,16.68-3.3s11.59,1.11,16.68,3.3c5.09,2.19,9.53,5.29,13.31,9.28,3.8,3.99,6.72,8.66,8.8,13.99,2.08,5.34,3.12,11.15,3.12,17.42,0,6.26-1.05,12.08-3.12,17.41-2.08,5.33-5,10-8.8,13.99-3.79,3.99-8.23,7.09-13.31,9.28-5.09,2.21-10.65,3.3-16.68,3.3ZM1704.02,776.77c4.16,0,7.97-.78,11.43-2.32,3.47-1.56,6.45-3.72,8.98-6.54,2.53-2.81,4.5-6.11,5.93-9.9,1.43-3.79,2.14-7.92,2.14-12.4s-.71-8.62-2.14-12.41c-1.43-3.79-3.41-7.09-5.93-9.9-2.53-2.81-5.51-4.99-8.98-6.54-3.46-1.54-7.27-2.32-11.43-2.32s-7.96.78-11.43,2.32c-3.46,1.56-6.47,3.71-9.04,6.48-2.56,2.77-4.54,6.05-5.92,9.83-1.39,3.79-2.08,7.97-2.08,12.54,0,4.48.69,8.63,2.08,12.46,1.38,3.83,3.35,7.13,5.92,9.9,2.58,2.77,5.59,4.92,9.04,6.48,3.47,1.54,7.28,2.32,11.43,2.32Z"/>
        <path class="cls-1" d="M1763.77,788.37v-85.54s33.48,0,33.48,0c6.11,0,11.63,1.02,16.57,3.06,4.92,2.03,9.13,4.96,12.64,8.79,3.51,3.84,6.2,8.35,8.07,13.57,1.86,5.22,2.81,10.99,2.81,17.36s-.94,12.15-2.81,17.41c-1.87,5.25-4.55,9.77-8.01,13.56-3.47,3.79-7.68,6.71-12.65,8.74-4.96,2.04-10.51,3.06-16.62,3.06h-33.48ZM1776.97,777.01l-.37-1.34h20.04c4.32,0,8.18-.7,11.55-2.08,3.38-1.39,6.22-3.37,8.54-5.93,2.32-2.56,4.09-5.73,5.32-9.48,1.22-3.74,1.84-7.93,1.84-12.58s-.61-8.83-1.84-12.54c-1.22-3.7-3.01-6.86-5.37-9.46-2.37-2.6-5.22-4.6-8.56-5.99-3.34-1.38-7.17-2.07-11.49-2.07h-20.41s.74-1.11.74-1.11v62.57Z"/>
        <path class="cls-1" d="M1850.53,788.37v-9.65s48.76-65.25,48.76-65.25l1.84,2.08h-47.42s0-12.72,0-12.72h61.96s0,9.53,0,9.53l-48.51,65.38-1.95-2.07h51.81s0,12.7,0,12.7h-66.47Z"/>
        <path class="cls-1" d="M1935.7,788.37v-85.54s53.88,0,53.88,0v12.72s-40.68,0-40.68,0v60.12s40.68,0,40.68,0v12.7s-53.88,0-53.88,0ZM1941.68,750.86v-12.72s41.18,0,41.18,0v12.72s-41.18,0-41.18,0Z"/>
        <path class="cls-1" d="M2010.73,788.37v-85.54s11.85,0,11.85,0l52.3,70.02-1.95,1.1c-.33-2.03-.61-4.25-.85-6.66-.24-2.4-.47-4.96-.68-7.69-.2-2.73-.37-5.62-.48-8.69-.13-3.05-.23-6.25-.31-9.59-.09-3.34-.13-6.8-.13-10.38v-28.11s13.2,0,13.2,0v85.54s-12.1,0-12.1,0l-51.44-67.45,1.34-1.71c.41,4.97.75,9.18,1.05,12.65.28,3.46.52,6.39.73,8.8.2,2.4.34,4.35.43,5.85.08,1.52.14,2.75.18,3.74.04.97.06,1.82.06,2.56v35.56s-13.2,0-13.2,0Z"/>
        <path class="cls-1" d="M2104.46,788.37v-12.22s13.81,0,13.81,0v-61.1s-13.81,0-13.81,0v-12.22s40.81,0,40.81,0v12.22s-13.81,0-13.81,0v61.1s13.81,0,13.81,0v12.22s-40.81,0-40.81,0Z"/>
        <path class="cls-1" d="M2200.01,789.6c-6.02,0-11.58-1.1-16.68-3.3-5.09-2.19-9.53-5.27-13.31-9.22-3.79-3.95-6.72-8.6-8.8-13.94-2.08-5.33-3.11-11.17-3.11-17.52,0-6.36,1.03-12.21,3.11-17.54,2.08-5.34,5.01-9.99,8.8-13.94,3.79-3.94,8.23-7.03,13.31-9.22,5.1-2.19,10.66-3.3,16.68-3.3s11.59,1.11,16.68,3.3c5.09,2.19,9.53,5.29,13.31,9.28,3.8,3.99,6.72,8.66,8.8,13.99,2.08,5.34,3.12,11.15,3.12,17.42,0,6.26-1.05,12.08-3.12,17.41-2.08,5.33-5,10-8.8,13.99-3.79,3.99-8.23,7.09-13.31,9.28-5.09,2.21-10.65,3.3-16.68,3.3ZM2200.01,776.77c4.16,0,7.97-.78,11.43-2.32,3.47-1.56,6.45-3.72,8.98-6.54,2.53-2.81,4.5-6.11,5.93-9.9,1.43-3.79,2.14-7.92,2.14-12.4s-.71-8.62-2.14-12.41c-1.43-3.79-3.41-7.09-5.93-9.9-2.53-2.81-5.51-4.99-8.98-6.54-3.46-1.54-7.27-2.32-11.43-2.32-4.14,0-7.96.78-11.43,2.32-3.46,1.56-6.47,3.71-9.04,6.48-2.56,2.77-4.54,6.05-5.92,9.83-1.39,3.79-2.08,7.97-2.08,12.54s.69,8.63,2.08,12.46c1.38,3.83,3.35,7.13,5.92,9.9,2.58,2.77,5.59,4.92,9.04,6.48,3.47,1.54,7.28,2.32,11.43,2.32Z"/>
        <path class="cls-1" d="M2277.97,788.37l-27.25-85.54h14.05s16.49,53.53,16.49,53.53c.5,1.3.94,2.83,1.35,4.58.41,1.75.77,3.52,1.1,5.32.32,1.79.62,3.46.92,5.01.28,1.54.55,2.81.79,3.79l-3.55-.13c1.22-4.31,2.18-7.65,2.87-10.02.7-2.36,1.25-4.17,1.66-5.43.41-1.26.77-2.35,1.1-3.24l15.39-38.62h11.86s14.9,38.62,14.9,38.62c.82,1.95,1.53,3.89,2.14,5.8.61,1.91,1.16,3.84,1.65,5.75.5,1.91,1.02,3.93,1.59,6.05l-3.18.85c.41-2.21.71-3.93.92-5.19.2-1.26.38-2.31.55-3.12.17-.8.32-1.61.48-2.37.17-.78.43-1.77.8-3,.36-1.22.87-2.9,1.52-5.01l16.26-53.16h14.17s-27.25,85.54-27.25,85.54h-9.16s-22.61-53.53-22.61-53.53l1.1.5-21.75,53.03h-8.91Z"/>
        <path class="cls-1" d="M2372.55,788.37l33.11-85.54h13.44s32.87,85.54,32.87,85.54h-14.04s-19.55-51.56-19.55-51.56c-.26-.57-.71-1.96-1.42-4.16-.69-2.21-1.48-4.64-2.38-7.33-.89-2.69-1.71-5.15-2.44-7.4-.74-2.23-1.22-3.69-1.47-4.34l2.81-.11c-.48,1.38-1.07,3.14-1.77,5.25-.69,2.12-1.42,4.35-2.19,6.72-.78,2.36-1.53,4.58-2.26,6.66-.74,2.08-1.35,3.8-1.84,5.19l-19.44,51.08h-13.43ZM2387.21,767.11l4.9-12.72h38.85s5.62,12.72,5.62,12.72h-49.37Z"/>
      </g>
      <g>
        <polygon class="cls-2" points="634.99 600.57 634.99 673.18 508.83 600.57 508.83 527.7 634.99 600.57"/>
        <polygon class="cls-2" points="723.77 459.52 700.96 442.92 729.17 442.92 737.93 416.04 746.58 442.92 774.79 442.92 751.98 459.52 760.74 486.3 737.93 469.7 715.02 486.3 723.77 459.52"/>
        <polygon class="cls-2" points="761.15 600.57 761.15 673.18 634.99 746.06 634.99 673.18 761.15 600.57"/>
        <polygon points="634.99 600.57 634.99 673.18 508.83 600.57 508.83 527.7 634.99 600.57"/>
        <polygon class="cls-3" points="761.15 600.57 761.15 673.18 634.99 746.06 634.99 673.18 761.15 600.57"/>
        <polygon class="cls-5" points="508.83 527.7 508.83 600.57 391.82 667.96 382.68 673.18 382.68 600.57 508.83 527.7"/>
        <polygon points="887.3 673.18 887.3 746.06 853.35 726.47 761.15 673.18 761.15 600.57 877.9 667.96 887.3 673.18"/>
        <polygon points="751.98 459.52 760.74 486.3 737.93 469.7 715.02 486.3 723.77 459.52 700.96 442.92 729.17 442.92 737.93 416.04 746.58 442.92 774.79 442.92 751.98 459.52"/>
      </g>
    </g>
    <g>
      <path class="cls-5" d="M508.85,1349.34l-117,67.43c.91,3.31,1.92,6.62,2.93,9.92-7.9-24.38-12.11-50.36-12.11-77.36l126.17-72.82v72.82Z"/>
      <polygon class="cls-2" points="508.85 1276.51 634.92 1349.34 634.92 1422.05 508.85 1349.34 508.85 1276.51"/>
      <path class="cls-2" d="M760.98,1349.34l117,67.54c-5.76,20.7-14.08,40.33-24.65,58.53l-92.35-53.24v-72.82Z"/>
      <polygon class="cls-3" points="760.98 1422.16 634.92 1494.87 634.92 1422.16 760.98 1349.34 760.98 1422.16"/>
      <path d="M634.92,1097.1c-139.3,0-252.24,112.94-252.24,252.24l126.17-72.82,126.07,72.82v72.72s-126.07-72.72-126.07-72.72l-117,67.43c.43,1.55.91,3.15,1.39,4.69.48,1.76,1.01,3.47,1.55,5.23,2.08,6.56,4.43,12.96,7.1,19.26,1.33,3.15,2.67,6.24,4.11,9.34,2.67,5.76,5.55,11.42,8.64,16.96,2.08,3.68,4.21,7.31,6.46,10.88,3.36,5.39,6.94,10.62,10.67,15.68,1.97,2.72,4.05,5.39,6.14,8,2.08,2.61,4.27,5.17,6.46,7.74,1.97,2.29,4,4.54,6.14,6.78,5.01,5.39,10.3,10.56,15.74,15.53,1.87,1.65,3.68,3.25,5.6,4.86.91.75,1.76,1.49,2.67,2.24,2.08,1.76,4.21,3.47,6.4,5.12l4,3.04c1.39.96,2.77,1.97,4.11,2.99,5.5,3.89,11.1,7.58,16.91,11.04,2.93,1.71,5.87,3.36,8.86,5.02,2.24,1.17,4.48,2.35,6.78,3.52,4.53,2.35,9.12,4.48,13.82,6.46,2.35,1.01,4.69,1.97,7.1,2.93h.05c6.35,2.51,12.8,4.75,19.42,6.72,23.1,7.04,47.59,10.78,72.98,10.78,52.39,0,101.05-15.95,141.43-43.43,3.2-2.08,6.4-4.37,9.5-6.77,1.01-.64,1.97-1.44,2.99-2.19,3.63-2.83,7.2-5.71,10.67-8.8,2.93-2.51,5.82-5.12,8.64-7.79,1.97-1.87,3.89-3.79,5.82-5.71,3.89-3.84,7.58-7.79,11.04-11.84,1.71-1.97,3.41-3.95,5.07-5.98.05-.11.11-.21.21-.27,1.65-2.08,3.31-4.11,4.91-6.24.05-.05.05-.11.16-.16,1.6-2.13,3.2-4.27,4.75-6.46,1.55-2.13,3.04-4.32,4.53-6.51.16-.32.37-.59.53-.85,2.88-4.32,5.6-8.7,8.16-13.18l-92.35-53.24-126.07,72.72v-72.72s126.07-72.82,126.07-72.82l117,67.54c.69-2.4,1.28-4.8,1.92-7.2,1.49-6.08,2.77-12.22,3.79-18.46.43-2.45.8-4.96,1.12-7.42.69-4.96,1.23-9.98,1.6-15.04.11-1.17.16-2.4.21-3.57.16-1.97.27-3.95.32-5.97.16-3.25.21-6.56.21-9.87,0-139.3-112.94-252.24-252.24-252.24ZM752.02,1208.33l8.64,26.78-22.78-16.65-22.83,16.65,8.75-26.78-22.89-16.65h28.17s8.8-26.89,8.8-26.89l8.75,26.89h28.17s-22.78,16.65-22.78,16.65Z"/>
      <g>
        <path d="M1045.98,1243.9v-85.54s13.2,0,13.2,0v85.54s-13.2,0-13.2,0ZM1056.97,1217.99l-.73-14.79,44.84-44.84h17.36s-61.47,59.64-61.47,59.64ZM1102.68,1243.9l-32.75-43.75,9.77-8.43,39.47,52.18h-16.49Z"/>
        <path d="M1153.63,1243.9l-27.25-85.54h14.05s16.49,53.53,16.49,53.53c.5,1.3.94,2.83,1.35,4.58.41,1.75.77,3.52,1.1,5.32.32,1.79.62,3.46.92,5.01.28,1.54.55,2.81.79,3.79l-3.55-.13c1.22-4.31,2.18-7.65,2.87-10.02.7-2.36,1.25-4.17,1.66-5.43.41-1.26.77-2.35,1.1-3.24l15.39-38.62h11.86s14.9,38.62,14.9,38.62c.82,1.95,1.53,3.89,2.14,5.8s1.16,3.84,1.65,5.75c.5,1.91,1.02,3.93,1.59,6.05l-3.18.85c.41-2.21.71-3.93.92-5.19.2-1.26.38-2.31.55-3.12.17-.8.32-1.61.48-2.37.17-.78.43-1.77.8-3,.36-1.22.87-2.9,1.52-5.01l16.26-53.16h14.17s-27.25,85.54-27.25,85.54h-9.16s-22.61-53.53-22.61-53.53l1.1.5-21.75,53.03h-8.91Z"/>
        <path d="M1253.95,1243.9v-12.22s13.81,0,13.81,0v-61.1s-13.81,0-13.81,0v-12.22s40.81,0,40.81,0v12.22s-13.81,0-13.81,0v61.1s13.81,0,13.81,0v12.22s-40.81,0-40.81,0Z"/>
        <path d="M1306.63,1243.9l33.11-85.54h13.44s32.87,85.54,32.87,85.54h-14.04s-19.55-51.56-19.55-51.56c-.26-.57-.71-1.96-1.42-4.16-.69-2.21-1.48-4.64-2.38-7.33-.89-2.69-1.71-5.15-2.44-7.4-.74-2.23-1.22-3.69-1.47-4.34l2.81-.11c-.48,1.38-1.07,3.14-1.77,5.25-.69,2.12-1.42,4.35-2.19,6.72-.78,2.36-1.53,4.58-2.26,6.66-.74,2.08-1.35,3.8-1.84,5.19l-19.44,51.08h-13.43ZM1321.28,1222.64l4.9-12.72h38.85s5.62,12.72,5.62,12.72h-49.37Z"/>
        <path d="M1417.33,1243.9v-72.82s-23.95,0-23.95,0v-12.72s61.83,0,61.83,0v12.72s-24.68,0-24.68,0v72.82s-13.2,0-13.2,0Z"/>
        <path d="M1471.47,1243.9v-85.54s13.2,0,13.2,0v85.54s-13.2,0-13.2,0ZM1482.46,1217.99l-.73-14.79,44.84-44.84h17.36s-61.47,59.64-61.47,59.64ZM1528.17,1243.9l-32.75-43.75,9.77-8.43,39.47,52.18h-16.49Z"/>
        <path d="M1596.71,1245.12c-6.02,0-11.58-1.1-16.68-3.3-5.09-2.19-9.53-5.27-13.31-9.22-3.79-3.95-6.72-8.6-8.8-13.94-2.08-5.33-3.11-11.17-3.11-17.52,0-6.36,1.03-12.21,3.11-17.54,2.08-5.34,5.01-9.99,8.8-13.94,3.79-3.94,8.23-7.03,13.31-9.22,5.1-2.19,10.66-3.3,16.68-3.3,6.03,0,11.59,1.11,16.68,3.3,5.09,2.19,9.53,5.29,13.31,9.28,3.8,3.99,6.72,8.66,8.8,13.99,2.08,5.34,3.12,11.15,3.12,17.42,0,6.26-1.05,12.08-3.12,17.41-2.08,5.33-5,10-8.8,13.99-3.79,3.99-8.23,7.09-13.31,9.28-5.09,2.21-10.65,3.3-16.68,3.3ZM1596.71,1232.29c4.16,0,7.97-.78,11.43-2.32,3.47-1.56,6.45-3.72,8.98-6.54,2.53-2.81,4.5-6.11,5.93-9.9,1.43-3.79,2.14-7.92,2.14-12.4,0-4.49-.71-8.62-2.14-12.41-1.43-3.79-3.41-7.09-5.93-9.9-2.53-2.81-5.51-4.99-8.98-6.54-3.46-1.54-7.27-2.32-11.43-2.32s-7.96.78-11.43,2.32c-3.46,1.56-6.47,3.71-9.04,6.48-2.56,2.77-4.54,6.05-5.92,9.83-1.39,3.79-2.08,7.97-2.08,12.54s.69,8.63,2.08,12.46c1.38,3.83,3.35,7.13,5.92,9.9,2.58,2.77,5.59,4.92,9.04,6.48,3.47,1.54,7.28,2.32,11.43,2.32ZM1588.41,1151.64l-3.43-6.35,22.37-13.81,5.74,11.01-24.68,9.16Z"/>
        <path d="M1674.69,1243.9l-27.25-85.54h14.05s16.49,53.53,16.49,53.53c.5,1.3.94,2.83,1.35,4.58.41,1.75.77,3.52,1.1,5.32.32,1.79.62,3.46.92,5.01.28,1.54.55,2.81.79,3.79l-3.55-.13c1.22-4.31,2.18-7.65,2.87-10.02.7-2.36,1.25-4.17,1.66-5.43.41-1.26.77-2.35,1.1-3.24l15.39-38.62h11.86s14.9,38.62,14.9,38.62c.82,1.95,1.53,3.89,2.14,5.8.61,1.91,1.16,3.84,1.65,5.75.5,1.91,1.02,3.93,1.59,6.05l-3.18.85c.41-2.21.71-3.93.92-5.19.2-1.26.38-2.31.55-3.12.17-.8.32-1.61.48-2.37.17-.78.43-1.77.8-3,.36-1.22.87-2.9,1.52-5.01l16.26-53.16h14.17s-27.25,85.54-27.25,85.54h-9.16s-22.61-53.53-22.61-53.53l1.1.5-21.75,53.03h-8.91Z"/>
        <path d="M1064.19,1390.54l-27.25-85.54h14.05s16.49,53.53,16.49,53.53c.5,1.3.94,2.83,1.35,4.58.41,1.75.77,3.52,1.1,5.32.32,1.79.62,3.46.92,5.01.28,1.54.55,2.81.79,3.79l-3.55-.13c1.22-4.31,2.18-7.65,2.87-10.02.7-2.36,1.25-4.17,1.66-5.43s.77-2.35,1.1-3.24l15.39-38.62h11.86s14.9,38.62,14.9,38.62c.82,1.95,1.53,3.89,2.14,5.8.61,1.91,1.16,3.84,1.65,5.75.5,1.91,1.02,3.93,1.59,6.05l-3.18.85c.41-2.21.71-3.93.92-5.19.2-1.26.38-2.31.55-3.12.17-.8.32-1.61.48-2.37.17-.78.43-1.77.8-3,.36-1.22.87-2.9,1.52-5.01l16.26-53.16h14.17s-27.25,85.54-27.25,85.54h-9.16s-22.61-53.53-22.61-53.53l1.1.5-21.75,53.03h-8.91Z"/>
        <path d="M1164.51,1390.54v-12.22s13.81,0,13.81,0v-61.1s-13.81,0-13.81,0v-12.22s40.81,0,40.81,0v12.22s-13.81,0-13.81,0v61.1s13.81,0,13.81,0v12.22s-40.81,0-40.81,0Z"/>
        <path d="M1260.06,1391.76c-6.02,0-11.58-1.1-16.68-3.3-5.09-2.19-9.53-5.27-13.31-9.22-3.79-3.95-6.72-8.6-8.8-13.94-2.08-5.33-3.11-11.17-3.11-17.52,0-6.36,1.03-12.21,3.11-17.54,2.08-5.34,5.01-9.99,8.8-13.94,3.79-3.94,8.23-7.03,13.31-9.22,5.1-2.19,10.66-3.3,16.68-3.3,6.03,0,11.59,1.11,16.68,3.3,5.09,2.19,9.53,5.29,13.31,9.28,3.8,3.99,6.72,8.66,8.8,13.99,2.08,5.34,3.12,11.15,3.12,17.42,0,6.26-1.05,12.08-3.12,17.41-2.08,5.33-5,10-8.8,13.99-3.79,3.99-8.23,7.09-13.31,9.28-5.09,2.21-10.65,3.3-16.68,3.3ZM1260.06,1378.93c4.16,0,7.97-.78,11.43-2.32,3.47-1.56,6.45-3.72,8.98-6.54,2.53-2.81,4.5-6.11,5.93-9.9,1.43-3.79,2.14-7.92,2.14-12.4,0-4.49-.71-8.62-2.14-12.41-1.43-3.79-3.41-7.09-5.93-9.9-2.53-2.81-5.51-4.99-8.98-6.54-3.46-1.54-7.27-2.32-11.43-2.32s-7.96.78-11.43,2.32c-3.46,1.56-6.47,3.71-9.04,6.48-2.56,2.77-4.54,6.05-5.92,9.83-1.39,3.79-2.08,7.97-2.08,12.54,0,4.48.69,8.63,2.08,12.46,1.38,3.83,3.35,7.13,5.92,9.9,2.58,2.77,5.59,4.92,9.04,6.48,3.47,1.54,7.28,2.32,11.43,2.32Z"/>
        <path d="M1346.22,1391.76c-4.66,0-8.95-.61-12.89-1.84-3.95-1.22-7.54-3.07-10.75-5.56-3.23-2.49-6.1-5.56-8.62-9.22l9.04-10.39c3.99,5.71,7.82,9.65,11.49,11.86,3.66,2.19,8.02,3.29,13.07,3.29,3.1,0,5.91-.48,8.43-1.47,2.53-.97,4.53-2.32,5.99-4.03,1.45-1.71,2.19-3.66,2.19-5.87,0-1.47-.24-2.84-.74-4.14-.48-1.3-1.24-2.49-2.26-3.55-1.02-1.06-2.32-2.04-3.9-2.93-1.59-.89-3.44-1.7-5.56-2.38-2.12-.69-4.57-1.29-7.33-1.77-4.4-.89-8.23-2.08-11.49-3.55-3.25-1.47-5.98-3.3-8.19-5.5-2.19-2.19-3.83-4.71-4.88-7.51-1.06-2.82-1.59-5.97-1.59-9.48s.75-6.59,2.27-9.53c1.5-2.93,3.58-5.48,6.22-7.64,2.65-2.16,5.76-3.83,9.35-5.01,3.58-1.17,7.46-1.77,11.61-1.77,4.4,0,8.44.57,12.1,1.71,3.66,1.15,6.93,2.83,9.78,5.08,2.84,2.24,5.2,4.99,7.08,8.25l-9.28,9.16c-1.63-2.68-3.46-4.95-5.5-6.77-2.04-1.84-4.27-3.23-6.72-4.16-2.45-.93-5.05-1.4-7.82-1.4-3.18,0-5.96.48-8.32,1.47-2.36.97-4.21,2.33-5.56,4.09-1.34,1.75-2.02,3.8-2.02,6.16,0,1.72.33,3.29.98,4.71.65,1.43,1.65,2.69,3,3.79,1.34,1.11,3.15,2.08,5.43,2.93,2.28.85,5.01,1.62,8.19,2.27,4.48.97,8.47,2.22,11.98,3.72,3.49,1.5,6.48,3.28,8.91,5.32,2.45,2.03,4.3,4.31,5.56,6.84,1.26,2.53,1.9,5.25,1.9,8.19,0,5.46-1.26,10.19-3.79,14.18-2.53,3.99-6.11,7.07-10.75,9.22-4.66,2.16-10.19,3.24-16.62,3.24Z"/>
        <path d="M1396.07,1390.54v-85.54s13.2,0,13.2,0v85.54s-13.2,0-13.2,0ZM1407.06,1364.64l-.73-14.79,44.84-44.84h17.36s-61.47,59.64-61.47,59.64ZM1452.77,1390.54l-32.75-43.75,9.77-8.43,39.47,52.18h-16.49Z"/>
        <path d="M1476.61,1390.54l33.11-85.54h13.44s32.87,85.54,32.87,85.54h-14.04s-19.55-51.56-19.55-51.56c-.26-.57-.71-1.96-1.42-4.16-.69-2.21-1.48-4.64-2.38-7.33-.89-2.69-1.71-5.15-2.44-7.4-.74-2.23-1.22-3.69-1.47-4.34l2.81-.11c-.48,1.38-1.07,3.14-1.77,5.25-.69,2.12-1.42,4.35-2.19,6.72-.78,2.36-1.53,4.58-2.26,6.66-.74,2.08-1.35,3.8-1.84,5.19l-19.44,51.08h-13.43ZM1491.26,1369.28l4.9-12.72h38.85s5.62,12.72,5.62,12.72h-49.37Z"/>
        <path d="M1045.98,1537.17v-85.54s35.69,0,35.69,0c5.46,0,10.06.82,13.8,2.45,3.75,1.63,6.58,4.06,8.49,7.27,1.91,3.21,2.87,7.14,2.87,11.78,0,4.64-1.28,8.6-3.84,11.86-2.58,3.25-6.13,5.5-10.7,6.72v-2.45c3.83.82,7.17,2.26,10.02,4.34,2.84,2.08,5.08,4.67,6.66,7.77,1.59,3.1,2.38,6.63,2.38,10.62,0,4.08-.64,7.68-1.9,10.82-1.26,3.14-3.14,5.76-5.61,7.88-2.49,2.12-5.48,3.72-8.99,4.83-3.49,1.1-7.49,1.65-11.96,1.65h-36.91ZM1059.18,1487.07h21.75c2.45,0,4.63-.5,6.54-1.47,1.91-.98,3.42-2.32,4.51-4.03,1.11-1.72,1.66-3.67,1.66-5.87,0-3.67-1.22-6.48-3.67-8.43-2.44-1.96-5.94-2.93-10.51-2.93h-20.28s0,22.73,0,22.73ZM1059.18,1524.47h22.97c3.34,0,6.17-.5,8.49-1.47,2.32-.98,4.11-2.42,5.38-4.35,1.25-1.91,1.89-4.21,1.89-6.9,0-2.53-.68-4.68-2.02-6.48-1.34-1.79-3.24-3.15-5.69-4.09-2.44-.93-5.33-1.4-8.67-1.4h-22.36s0,24.69,0,24.69Z"/>
        <path d="M1165,1538.39c-6.02,0-11.58-1.1-16.68-3.3-5.09-2.19-9.53-5.27-13.31-9.22-3.79-3.95-6.72-8.6-8.8-13.94-2.08-5.33-3.11-11.17-3.11-17.52,0-6.36,1.03-12.21,3.11-17.54,2.08-5.34,5.01-9.99,8.8-13.94,3.79-3.94,8.23-7.03,13.31-9.22,5.1-2.19,10.66-3.3,16.68-3.3s11.59,1.11,16.68,3.3c5.09,2.19,9.53,5.29,13.31,9.28,3.8,3.99,6.72,8.66,8.8,13.99,2.08,5.34,3.12,11.15,3.12,17.42,0,6.26-1.05,12.08-3.12,17.41-2.08,5.33-5,10-8.8,13.99-3.79,3.99-8.23,7.09-13.31,9.28-5.09,2.21-10.65,3.3-16.68,3.3ZM1165,1525.56c4.16,0,7.97-.78,11.43-2.32,3.47-1.56,6.45-3.72,8.98-6.54,2.53-2.81,4.5-6.11,5.93-9.9,1.43-3.79,2.14-7.92,2.14-12.4,0-4.49-.71-8.62-2.14-12.41-1.43-3.79-3.41-7.09-5.93-9.9-2.53-2.81-5.51-4.99-8.98-6.54-3.46-1.54-7.27-2.32-11.43-2.32s-7.96.78-11.43,2.32c-3.46,1.56-6.47,3.71-9.04,6.48-2.56,2.77-4.54,6.05-5.92,9.83-1.39,3.79-2.08,7.97-2.08,12.54,0,4.48.69,8.63,2.08,12.46,1.38,3.83,3.35,7.13,5.92,9.9,2.58,2.77,5.59,4.92,9.04,6.48,3.47,1.54,7.28,2.32,11.43,2.32Z"/>
        <path d="M1220.11,1537.17v-9.65s48.76-65.25,48.76-65.25l1.84,2.08h-47.42s0-12.72,0-12.72h61.96s0,9.53,0,9.53l-48.52,65.38-1.95-2.07h51.81s0,12.7,0,12.7h-66.47ZM1253.1,1444.42c-2.86,0-4.97-.74-6.35-2.21-1.39-1.47-2.08-3.38-2.08-5.74,0-2.04.69-3.86,2.08-5.5,1.38-1.63,3.49-2.45,6.35-2.45s4.96.74,6.35,2.21c1.39,1.47,2.08,3.38,2.08,5.74,0,2.04-.69,3.86-2.08,5.5-1.39,1.63-3.51,2.45-6.35,2.45Z"/>
        <path d="M1341.08,1538.39c-6.02,0-11.58-1.1-16.68-3.3-5.09-2.19-9.53-5.27-13.31-9.22-3.79-3.95-6.72-8.6-8.8-13.94-2.08-5.33-3.11-11.17-3.11-17.52,0-6.36,1.03-12.21,3.11-17.54,2.08-5.34,5.01-9.99,8.8-13.94,3.79-3.94,8.23-7.03,13.31-9.22,5.1-2.19,10.66-3.3,16.68-3.3s11.59,1.11,16.68,3.3c5.09,2.19,9.53,5.29,13.31,9.28,3.8,3.99,6.72,8.66,8.8,13.99,2.08,5.34,3.12,11.15,3.12,17.42s-1.05,12.08-3.12,17.41c-2.08,5.33-5,10-8.8,13.99-3.79,3.99-8.23,7.09-13.31,9.28-5.09,2.21-10.65,3.3-16.68,3.3ZM1341.08,1525.56c4.16,0,7.97-.78,11.43-2.32,3.47-1.56,6.45-3.72,8.98-6.54,2.53-2.81,4.5-6.11,5.93-9.9,1.43-3.79,2.14-7.92,2.14-12.4s-.71-8.62-2.14-12.41c-1.43-3.79-3.41-7.09-5.93-9.9-2.53-2.81-5.51-4.99-8.98-6.54-3.46-1.54-7.27-2.32-11.43-2.32s-7.96.78-11.43,2.32c-3.46,1.56-6.47,3.71-9.04,6.48-2.56,2.77-4.54,6.05-5.92,9.83-1.39,3.79-2.08,7.97-2.08,12.54,0,4.48.69,8.63,2.08,12.46,1.38,3.83,3.35,7.13,5.92,9.9,2.58,2.77,5.59,4.92,9.04,6.48,3.47,1.54,7.28,2.32,11.43,2.32Z"/>
        <path d="M1400.84,1537.17v-85.54s11.85,0,11.85,0l52.3,70.02-1.95,1.1c-.33-2.03-.61-4.25-.85-6.66-.24-2.4-.47-4.96-.68-7.69-.2-2.73-.37-5.62-.48-8.69-.13-3.05-.23-6.25-.31-9.59-.09-3.34-.13-6.8-.13-10.38v-28.11s13.2,0,13.2,0v85.54s-12.1,0-12.1,0l-51.44-67.45,1.34-1.71c.41,4.97.75,9.18,1.05,12.65.28,3.46.52,6.39.73,8.8.2,2.4.34,4.35.43,5.85.08,1.52.14,2.75.18,3.74.04.97.06,1.82.06,2.56v35.56s-13.2,0-13.2,0Z"/>
        <path d="M1488.83,1537.17l33.11-85.54h13.44s32.87,85.54,32.87,85.54h-14.04s-19.55-51.56-19.55-51.56c-.26-.57-.71-1.96-1.42-4.16-.69-2.21-1.48-4.64-2.38-7.33-.89-2.69-1.71-5.15-2.44-7.4-.74-2.23-1.22-3.69-1.47-4.34l2.81-.11c-.48,1.38-1.07,3.14-1.77,5.25-.69,2.12-1.42,4.35-2.19,6.72-.78,2.36-1.53,4.58-2.26,6.66-.74,2.08-1.35,3.8-1.84,5.19l-19.44,51.08h-13.43ZM1503.48,1515.91l4.9-12.72h38.85s5.62,12.72,5.62,12.72h-49.37Z"/>
        <path d="M1583.28,1537.17v-85.54s36.41,0,36.41,0c4.88,0,9.39,1.2,13.51,3.61,4.11,2.4,7.4,5.66,9.83,9.77,2.45,4.12,3.67,8.74,3.67,13.88,0,4.64-1.22,8.95-3.67,12.95-2.44,3.99-5.7,7.19-9.77,9.59-4.08,2.41-8.6,3.61-13.57,3.61h-23.21s0,32.14,0,32.14h-13.2ZM1596.48,1492.33h24.44c2.36,0,4.48-.6,6.35-1.77,1.87-1.19,3.34-2.82,4.4-4.9,1.06-2.07,1.59-4.37,1.59-6.9,0-2.84-.68-5.36-2.02-7.51-1.35-2.16-3.23-3.85-5.62-5.08-2.41-1.22-5.11-1.82-8.12-1.82h-21.02s0,27.98,0,27.98ZM1634.12,1537.17l-21.76-38.62,13.57-3.05,24.19,41.79-16.01-.13Z"/>
        <path d="M1704.01,1538.39c-6.02,0-11.58-1.1-16.68-3.3-5.09-2.19-9.53-5.27-13.31-9.22-3.79-3.95-6.72-8.6-8.8-13.94-2.08-5.33-3.11-11.17-3.11-17.52,0-6.36,1.03-12.21,3.11-17.54,2.08-5.34,5.01-9.99,8.8-13.94,3.79-3.94,8.23-7.03,13.31-9.22,5.1-2.19,10.66-3.3,16.68-3.3,6.03,0,11.59,1.11,16.68,3.3,5.09,2.19,9.53,5.29,13.31,9.28,3.8,3.99,6.72,8.66,8.8,13.99,2.08,5.34,3.12,11.15,3.12,17.42,0,6.26-1.05,12.08-3.12,17.41-2.08,5.33-5,10-8.8,13.99-3.79,3.99-8.23,7.09-13.31,9.28-5.09,2.21-10.65,3.3-16.68,3.3ZM1704.01,1525.56c4.16,0,7.97-.78,11.43-2.32,3.47-1.56,6.45-3.72,8.98-6.54,2.53-2.81,4.5-6.11,5.93-9.9s2.14-7.92,2.14-12.4-.71-8.62-2.14-12.41c-1.43-3.79-3.41-7.09-5.93-9.9-2.53-2.81-5.51-4.99-8.98-6.54-3.46-1.54-7.27-2.32-11.43-2.32-4.14,0-7.96.78-11.43,2.32-3.46,1.56-6.47,3.71-9.04,6.48-2.56,2.77-4.54,6.05-5.92,9.83-1.39,3.79-2.08,7.97-2.08,12.54s.69,8.63,2.08,12.46c1.38,3.83,3.35,7.13,5.92,9.9,2.58,2.77,5.59,4.92,9.04,6.48,3.47,1.54,7.28,2.32,11.43,2.32Z"/>
        <path d="M1763.76,1537.17v-85.54s33.48,0,33.48,0c6.11,0,11.63,1.02,16.57,3.06,4.92,2.03,9.13,4.96,12.64,8.79,3.51,3.84,6.2,8.35,8.07,13.57,1.86,5.22,2.81,10.99,2.81,17.36,0,6.35-.94,12.15-2.81,17.41-1.87,5.25-4.55,9.77-8.01,13.56-3.47,3.79-7.68,6.71-12.65,8.74-4.96,2.04-10.51,3.06-16.62,3.06h-33.48ZM1776.96,1525.81l-.37-1.34h20.04c4.32,0,8.18-.7,11.55-2.08,3.38-1.39,6.22-3.37,8.55-5.93,2.32-2.56,4.09-5.73,5.32-9.48,1.22-3.74,1.84-7.93,1.84-12.58s-.61-8.83-1.84-12.54c-1.22-3.7-3.01-6.86-5.37-9.46-2.37-2.6-5.22-4.6-8.56-5.99-3.34-1.38-7.17-2.07-11.49-2.07h-20.41s.74-1.11.74-1.11v62.57Z"/>
        <path d="M1850.53,1537.17v-9.65s48.76-65.25,48.76-65.25l1.84,2.08h-47.42s0-12.72,0-12.72h61.96s0,9.53,0,9.53l-48.52,65.38-1.95-2.07h51.81s0,12.7,0,12.7h-66.47Z"/>
        <path d="M1935.7,1537.17v-85.54s53.88,0,53.88,0v12.72s-40.68,0-40.68,0v60.12s40.68,0,40.68,0v12.7s-53.88,0-53.88,0ZM1941.68,1499.66v-12.72s41.18,0,41.18,0v12.72s-41.18,0-41.18,0Z"/>
        <path d="M2010.73,1537.17v-85.54s11.85,0,11.85,0l52.3,70.02-1.95,1.1c-.33-2.03-.61-4.25-.85-6.66-.24-2.4-.47-4.96-.68-7.69s-.37-5.62-.48-8.69c-.13-3.05-.23-6.25-.31-9.59-.09-3.34-.13-6.8-.13-10.38v-28.11s13.2,0,13.2,0v85.54s-12.1,0-12.1,0l-51.44-67.45,1.34-1.71c.41,4.97.75,9.18,1.05,12.65.28,3.46.52,6.39.73,8.8.2,2.4.34,4.35.43,5.85.08,1.52.14,2.75.18,3.74.04.97.06,1.82.06,2.56v35.56s-13.2,0-13.2,0Z"/>
        <path d="M2104.45,1537.17v-12.22s13.81,0,13.81,0v-61.1s-13.81,0-13.81,0v-12.22s40.81,0,40.81,0v12.22s-13.81,0-13.81,0v61.1s13.81,0,13.81,0v12.22s-40.81,0-40.81,0Z"/>
        <path d="M2200,1538.39c-6.02,0-11.58-1.1-16.68-3.3-5.09-2.19-9.53-5.27-13.31-9.22-3.79-3.95-6.72-8.6-8.8-13.94-2.08-5.33-3.11-11.17-3.11-17.52,0-6.36,1.03-12.21,3.11-17.54,2.08-5.34,5.01-9.99,8.8-13.94,3.79-3.94,8.23-7.03,13.31-9.22,5.1-2.19,10.66-3.3,16.68-3.3,6.03,0,11.59,1.11,16.68,3.3,5.09,2.19,9.53,5.29,13.31,9.28,3.8,3.99,6.72,8.66,8.8,13.99,2.08,5.34,3.12,11.15,3.12,17.42,0,6.26-1.05,12.08-3.12,17.41-2.08,5.33-5,10-8.8,13.99-3.79,3.99-8.23,7.09-13.31,9.28-5.09,2.21-10.65,3.3-16.68,3.3ZM2200,1525.56c4.16,0,7.97-.78,11.43-2.32,3.47-1.56,6.45-3.72,8.98-6.54,2.53-2.81,4.5-6.11,5.93-9.9,1.43-3.79,2.14-7.92,2.14-12.4s-.71-8.62-2.14-12.41c-1.43-3.79-3.41-7.09-5.93-9.9-2.53-2.81-5.51-4.99-8.98-6.54-3.46-1.54-7.27-2.32-11.43-2.32s-7.96.78-11.43,2.32c-3.46,1.56-6.47,3.71-9.04,6.48-2.56,2.77-4.54,6.05-5.92,9.83-1.39,3.79-2.08,7.97-2.08,12.54s.69,8.63,2.08,12.46c1.38,3.83,3.35,7.13,5.92,9.9,2.58,2.77,5.59,4.92,9.04,6.48,3.47,1.54,7.28,2.32,11.43,2.32Z"/>
        <path d="M2277.97,1537.17l-27.25-85.54h14.05s16.49,53.53,16.49,53.53c.5,1.3.94,2.83,1.35,4.58.41,1.75.77,3.52,1.1,5.32.32,1.79.62,3.46.92,5.01.28,1.54.55,2.81.79,3.79l-3.55-.13c1.22-4.31,2.18-7.65,2.87-10.02.7-2.36,1.25-4.17,1.66-5.43.41-1.26.77-2.35,1.1-3.24l15.39-38.62h11.86s14.9,38.62,14.9,38.62c.82,1.95,1.53,3.89,2.14,5.8.61,1.91,1.16,3.84,1.65,5.75.5,1.91,1.02,3.93,1.59,6.05l-3.18.85c.41-2.21.71-3.93.92-5.19.2-1.26.38-2.31.55-3.12.17-.8.32-1.61.48-2.37.17-.78.43-1.77.8-3,.36-1.22.87-2.9,1.52-5.01l16.26-53.16h14.17s-27.25,85.54-27.25,85.54h-9.16s-22.61-53.53-22.61-53.53l1.1.5-21.75,53.03h-8.91Z"/>
        <path d="M2372.55,1537.17l33.11-85.54h13.44s32.87,85.54,32.87,85.54h-14.04s-19.55-51.56-19.55-51.56c-.26-.57-.71-1.96-1.42-4.16-.69-2.21-1.48-4.64-2.38-7.33-.89-2.69-1.71-5.15-2.44-7.4-.74-2.23-1.22-3.69-1.47-4.34l2.81-.11c-.48,1.38-1.07,3.14-1.77,5.25-.69,2.12-1.42,4.35-2.19,6.72-.78,2.36-1.53,4.58-2.26,6.66-.74,2.08-1.35,3.8-1.84,5.19l-19.44,51.08h-13.43ZM2387.2,1515.91l4.9-12.72h38.85s5.62,12.72,5.62,12.72h-49.37Z"/>
      </g>
      <path d="M634.92,1097.1c-139.3,0-252.24,112.94-252.24,252.24l126.17-72.82,126.07,72.82v72.72s-126.07-72.72-126.07-72.72l-117,67.43c.43,1.55.91,3.15,1.39,4.69.48,1.76,1.01,3.47,1.55,5.23,2.13,6.51,4.48,12.96,7.1,19.26,1.33,3.15,2.67,6.24,4.11,9.34,2.67,5.76,5.55,11.42,8.64,16.96,2.08,3.68,4.21,7.31,6.46,10.88,3.36,5.39,6.94,10.62,10.67,15.68,1.97,2.72,4.05,5.39,6.14,8,2.08,2.61,4.27,5.17,6.46,7.74,1.97,2.29,4,4.54,6.14,6.78,5.01,5.39,10.3,10.56,15.74,15.53,1.87,1.65,3.68,3.25,5.6,4.86.91.75,1.76,1.49,2.67,2.24,2.08,1.76,4.21,3.47,6.4,5.12l4,3.04c1.39.96,2.77,1.97,4.11,2.99,5.5,3.89,11.1,7.58,16.91,11.04,2.93,1.71,5.87,3.36,8.86,5.02,2.24,1.17,4.48,2.35,6.78,3.52,4.53,2.29,9.12,4.43,13.82,6.46,2.35,1.01,4.69,1.97,7.1,2.93h.05c6.35,2.51,12.8,4.75,19.42,6.72,23.1,6.94,47.59,10.67,72.98,10.67,52.44,0,101.1-16.01,141.43-43.32,3.2-2.19,6.4-4.48,9.5-6.77,4.69-3.52,9.23-7.15,13.66-10.99,2.93-2.51,5.82-5.12,8.64-7.79,1.97-1.87,3.89-3.79,5.82-5.71,3.79-3.84,7.52-7.79,11.04-11.84,1.71-1.97,3.41-3.95,5.07-5.98.05-.11.11-.21.21-.27,1.65-2.08,3.31-4.11,4.91-6.24.05-.05.05-.11.16-.16,1.6-2.13,3.2-4.27,4.75-6.46,1.55-2.13,3.04-4.32,4.53-6.51.16-.32.37-.59.53-.85,2.88-4.32,5.6-8.7,8.16-13.18l-92.35-53.24-126.07,72.72v-72.72s126.07-72.82,126.07-72.82l117,67.54c.69-2.4,1.28-4.8,1.92-7.2,1.49-6.08,2.77-12.22,3.79-18.46.43-2.45.8-4.96,1.12-7.42.69-4.96,1.23-9.98,1.6-15.04.11-1.17.16-2.4.21-3.57.16-1.97.27-3.95.32-5.97.16-3.25.21-6.56.21-9.87,0-139.3-112.94-252.24-252.24-252.24ZM752.02,1208.33l8.64,26.78-22.78-16.65-22.83,16.65,8.75-26.78-22.89-16.65h28.17s8.8-26.89,8.8-26.89l8.75,26.89h28.17s-22.78,16.65-22.78,16.65Z"/>
      <polygon class="cls-2" points="752.02 1208.33 760.66 1235.11 737.88 1218.47 715.05 1235.11 723.8 1208.33 700.91 1191.69 729.08 1191.69 737.88 1164.8 746.63 1191.69 774.8 1191.69 752.02 1208.33"/>
    </g>
  </g>
</svg>