<?xml version="1.0" encoding="UTF-8"?>
<svg id="Warstwa_2" data-name="Warstwa 2" xmlns="http://www.w3.org/2000/svg" viewBox="0 0 1995.55 2858.52">
  <defs>
    <style>
      .cls-1 {
        fill: #0ca3de;
      }

      .cls-2 {
        fill: #93c462;
      }

      .cls-3 {
        fill: #fff;
      }

      .cls-4 {
        fill: #455d8f;
      }

      .cls-5 {
        stroke: #3d527d;
      }

      .cls-5, .cls-6 {
        fill: none;
        stroke-miterlimit: 10;
        stroke-width: 30px;
      }

      .cls-7 {
        fill: #1f2244;
      }

      .cls-8 {
        fill: #fdc75f;
      }

      .cls-9 {
        fill: #6071b5;
      }

      .cls-6 {
        stroke: #f9b233;
      }

      .cls-10 {
        fill: #5766ad;
      }
    </style>
  </defs>
  <g id="Warstwa_1-2" data-name="Warstwa 1">
    <rect class="cls-9" x=".36" y="23.87" width="1984.25" height="2834.65"/>
    <path class="cls-4" d="M1070.28,23.87c-8.14,30.66-17.6,81.62-9.87,143.79,10.09,81.17,43.84,135.98,50.72,146.89,9.7,15.36,48.15,73.46,123.32,116.18,72.54,41.22,101.16,23.74,185.1,51.31,22.06,7.25,156.84,53.41,241.02,173.62,28.02,40.01,46.6,99.53,83.74,218.55,31.48,100.85,47.22,151.28,46.98,187.91-.78,119.85-69.44,139.85-81.7,271.66-2.94,31.57-11.47,123.31,38.81,210.38,71.8,124.34,214.15,153.67,245.11,159.32.68-567.83,1.36-1135.66,2.04-1703.49-308.43,7.96-616.85,15.91-925.28,23.87Z"/>
    <path class="cls-4" d="M170.84,1426.86c66.1,6.53,138.49,13.67,200.95,69.35,12.98,11.57,79.75,71.09,84.19,168.22,4.2,91.95-50.25,156.33-69.09,176.21-45.81,48.33-72.05,35.07-116.27,79.62-47.88,48.24-79.21,126.34-70.47,202.21,12.42,107.73,103.34,191.1,191.49,219.06,137.69,43.67,191.84-72.2,343.15-49.02,167.02,25.58,287.28,195.28,334.43,325.22,35.92,99,34.09,187.8,28.64,240.79H0c.84-473.61,1.69-947.21,2.53-1420.82,37.73-8.64,96.8-17.91,168.3-10.85Z"/>
    <path class="cls-5" d="M1984.25,2275.99c-342.64,0-620.4-277.76-620.4-620.4s277.76-620.4,620.4-620.4"/>
    <path class="cls-10" d="M0,502.19c198.86-117.45,397.72,25.53,397.72,241.02,0,293.11-162.84,201.44-249.19,424.85-64.34,166.47,59.71,227.49,36.77,416.68-19.73,162.71-108.96,285.93-179.74,363.57"/>
    <path class="cls-10" d="M1984.25,1035.18V23.87h-528.49c-24.42,100.03-40.98,242.19,32.68,356.79,89.38,139.07,229.41,109.67,285.96,228.77,79.23,166.86-145.83,329.46-89.87,535.15,22.26,81.82,92.32,182.7,299.73,269.62v-379.01"/>
    <path class="cls-10" d="M1.17,2201.36c180.53,21.92,266.04,87.99,310.76,144.24,68.96,86.75,86.22,178.43,194.98,282.14,20.93,19.96,48.79,37.01,89.44,50.8,175.37,59.47,307.91-82.72,487.66-59.23,280.38,36.64,378.51,208.92,596.43,167.49,146.46-27.84,245.9-148.27,303.81-236.94v308.66H0c.39-219.05.78-438.1,1.17-657.16Z"/>
    <g>
      <path class="cls-3" d="M694.21,889.61v12.45h-51.89v-67.02h50.65v12.45h-35.23v14.55h31.12v12.06h-31.12v15.51h36.48Z"/>
      <path class="cls-3" d="M725.13,872.57v-37.53h15.51v36.96c0,12.73,5.55,18,14.94,18s14.94-5.27,14.94-18v-36.96h15.32v37.53c0,19.72-11.3,30.64-30.35,30.64s-30.35-10.91-30.35-30.64Z"/>
      <path class="cls-3" d="M862.98,902.05l-12.92-18.67h-14.27v18.67h-15.51v-67.02h29.01c17.9,0,29.1,9.29,29.1,24.32,0,10.05-5.07,17.42-13.79,21.16l15.03,21.54h-16.66ZM848.43,847.67h-12.64v23.36h12.64c9.48,0,14.27-4.4,14.27-11.68s-4.79-11.68-14.27-11.68Z"/>
      <path class="cls-3" d="M905.58,868.55c0-19.91,15.51-34.66,36.67-34.66s36.67,14.65,36.67,34.66-15.61,34.66-36.67,34.66-36.67-14.74-36.67-34.66ZM963.22,868.55c0-12.73-9-21.45-20.97-21.45s-20.97,8.71-20.97,21.45,9,21.45,20.97,21.45,20.97-8.71,20.97-21.45Z"/>
      <path class="cls-3" d="M1067.85,859.35c0,14.93-11.2,24.22-29.1,24.22h-13.5v18.48h-15.51v-67.02h29.01c17.9,0,29.1,9.29,29.1,24.32ZM1052.15,859.35c0-7.37-4.79-11.68-14.26-11.68h-12.64v23.26h12.64c9.48,0,14.26-4.31,14.26-11.58Z"/>
      <path class="cls-3" d="M1149.9,889.61v12.45h-51.89v-67.02h50.65v12.45h-35.23v14.55h31.12v12.06h-31.12v15.51h36.48Z"/>
      <path class="cls-3" d="M1225.52,887.69h-31.12l-5.94,14.36h-15.89l29.87-67.02h15.32l29.97,67.02h-16.28l-5.94-14.36ZM1220.64,875.92l-10.63-25.66-10.63,25.66h21.25Z"/>
      <path class="cls-3" d="M1335.33,835.04v67.02h-12.73l-33.41-40.69v40.69h-15.32v-67.02h12.83l33.32,40.69v-40.69h15.32Z"/>
      <path class="cls-3" d="M141.73,954.71h67.78v148.48h90.76v52.56h-158.54v-201.04Z"/>
      <path class="cls-3" d="M458.8,1120.71h-76.4l-13.5,35.04h-68.93l87.88-201.04h66.63l87.88,201.04h-70.08l-13.5-35.04ZM440.13,1071.88l-19.53-50.55-19.53,50.55h39.06Z"/>
      <path class="cls-3" d="M751.45,954.71v201.04h-55.72l-76.4-91.33v91.33h-66.06v-201.04h55.72l76.4,91.33v-91.33h66.06Z"/>
      <path class="cls-3" d="M917.16,1049.77h58.88v85.01c-24.41,16.66-58.02,25.56-87.6,25.56-64.91,0-112.3-43.37-112.3-105.12s47.39-105.12,113.73-105.12c39.63,0,71.51,13.79,91.9,38.77l-43.37,38.2c-12.64-14.65-27.28-22.11-45.09-22.11-29.87,0-48.82,19.24-48.82,50.26s18.96,50.26,47.96,50.26c8.33,0,16.37-1.44,24.7-4.88v-50.83Z"/>
      <path class="cls-3" d="M1003.32,1065.28v-110.57h67.78v108.56c0,30.73,11.77,42.22,30.73,42.22s30.73-11.49,30.73-42.22v-108.56h66.63v110.57c0,60.31-36.19,95.06-97.94,95.06s-97.94-34.75-97.94-95.06Z"/>
      <path class="cls-3" d="M1362.9,1120.71h-76.39l-13.5,35.04h-68.93l87.88-201.04h66.63l87.88,201.04h-70.08l-13.5-35.04ZM1344.23,1071.88l-19.53-50.55-19.53,50.55h39.06Z"/>
      <path class="cls-3" d="M1587.49,1049.77h58.88v85.01c-24.41,16.66-58.01,25.56-87.6,25.56-64.91,0-112.3-43.37-112.3-105.12s47.39-105.12,113.73-105.12c39.63,0,71.51,13.79,91.9,38.77l-43.37,38.2c-12.64-14.65-27.28-22.11-45.09-22.11-29.87,0-48.82,19.24-48.82,50.26s18.96,50.26,47.96,50.26c8.33,0,16.37-1.44,24.7-4.88v-50.83Z"/>
      <path class="cls-3" d="M1842.52,1104.63v51.12h-167.15v-201.04h163.42v51.12h-96.79v23.55h85.01v48.82h-85.01v26.42h100.52Z"/>
      <path class="cls-7" d="M676.78,1208.4h99.08c67.21,0,113.45,38.2,113.45,100.52s-46.24,100.52-113.45,100.52h-99.08v-201.04ZM772.99,1356.6c28.43,0,47.96-16.95,47.96-47.68s-19.53-47.68-47.96-47.68h-28.43v95.35h28.43Z"/>
      <path class="cls-7" d="M1048.13,1374.4h-76.4l-13.5,35.04h-68.93l87.88-201.04h66.63l87.88,201.04h-70.08l-13.5-35.04ZM1029.46,1325.58l-19.53-50.55-19.53,50.55h39.06Z"/>
      <path class="cls-7" d="M1249.17,1336.49v72.95h-67.78v-73.81l-75.82-127.23h71.51l41.07,69.5,41.36-69.5h65.48l-75.82,128.09Z"/>
    </g>
    <g>
      <path class="cls-1" d="M1112.42,1802.12c0,80.93,65.61,146.53,146.53,146.53h293.05s146.74,146.74,146.74,146.74v-146.74c80.83-.11,146.32-65.67,146.32-146.53,0-80.92-65.6-146.53-146.53-146.53h-439.58c-80.92,0-146.53,65.61-146.53,146.53Z"/>
      <g>
        <path class="cls-3" d="M1182.61,1848.3l9.77-21.68c10.48,7.64,26.12,12.97,41.05,12.97,17.06,0,23.99-5.69,23.99-13.33,0-23.28-72.32-7.29-72.32-53.48,0-21.15,17.06-38.74,52.42-38.74,15.64,0,31.63,3.73,43.18,11.02l-8.88,21.86c-11.55-6.57-23.46-9.77-34.47-9.77-17.06,0-23.63,6.4-23.63,14.21,0,22.92,72.32,7.11,72.32,52.77,0,20.79-17.24,38.56-52.77,38.56-19.72,0-39.62-5.86-50.64-14.39Z"/>
        <path class="cls-3" d="M1396.91,1764.96l-40.34,95.6h-28.61l-40.16-95.6h28.61l26.48,65.03,27.36-65.03h26.65Z"/>
        <path class="cls-3" d="M1498.72,1820.58h-72.32c2.67,11.91,12.79,19.19,27.36,19.19,10.13,0,17.41-3.02,23.99-9.24l14.75,15.99c-8.88,10.13-22.21,15.46-39.45,15.46-33.05,0-54.55-20.79-54.55-49.22s21.86-49.22,51-49.22,49.75,18.83,49.75,49.58c0,2.13-.36,5.15-.53,7.46ZM1426.05,1804.41h47.09c-1.96-12.08-11.02-19.9-23.46-19.9s-21.68,7.64-23.63,19.9Z"/>
        <path class="cls-3" d="M1514.36,1736.18c0-8.71,6.93-15.46,17.24-15.46s17.24,6.4,17.24,14.93c0,9.24-6.93,15.99-17.24,15.99s-17.24-6.75-17.24-15.46ZM1517.74,1764.96h27.72v95.6h-27.72v-95.6Z"/>
        <path class="cls-3" d="M1612.27,1823.07l-13.33,13.15v24.34h-27.72v-131.84h27.72v74.63l40.51-38.38h33.05l-39.8,40.51,43.36,55.08h-33.58l-30.21-37.49Z"/>
        <path class="cls-3" d="M1684.41,1736.18c0-8.71,6.93-15.46,17.24-15.46s17.24,6.4,17.24,14.93c0,9.24-6.93,15.99-17.24,15.99s-17.24-6.75-17.24-15.46ZM1687.79,1764.96h27.72v95.6h-27.72v-95.6Z"/>
        <path class="cls-3" d="M1737.19,1845.81c0-9.06,7.11-15.81,17.06-15.81s17.06,6.75,17.06,15.81-7.11,16.17-17.06,16.17-17.06-7.29-17.06-16.17ZM1737.72,1736.18h33.05l-5.51,81.2h-22.03l-5.51-81.2Z"/>
      </g>
    </g>
    <g>
      <path class="cls-2" d="M1109.88,2423.52c0,80.93,65.61,146.53,146.53,146.53h293.05s146.74,146.74,146.74,146.74v-146.74c80.83-.11,146.32-65.67,146.32-146.53,0-80.92-65.6-146.53-146.53-146.53h-439.58c-80.92,0-146.53,65.61-146.53,146.53Z"/>
      <g>
        <path class="cls-3" d="M1341.07,2363.45v124.38h-28.79v-51h-56.5v51h-28.79v-124.38h28.79v49.04h56.5v-49.04h28.79Z"/>
        <path class="cls-3" d="M1453.19,2433.28v54.55h-25.94v-11.91c-5.15,8.71-15.1,13.33-29.14,13.33-22.39,0-35.72-12.44-35.72-28.96s11.91-28.61,41.05-28.61h22.03c0-11.91-7.11-18.83-22.03-18.83-10.13,0-20.61,3.38-27.54,8.88l-9.95-19.37c10.48-7.46,25.94-11.55,41.22-11.55,29.14,0,46.02,13.5,46.02,42.47ZM1425.47,2457.62v-9.77h-19.01c-12.97,0-17.06,4.8-17.06,11.19,0,6.93,5.86,11.55,15.64,11.55,9.24,0,17.24-4.26,20.43-12.97Z"/>
        <path class="cls-3" d="M1478.25,2355.98h27.72v131.84h-27.72v-131.84Z"/>
        <path class="cls-3" d="M1531.73,2355.98h27.72v131.84h-27.72v-131.84Z"/>
        <path class="cls-3" d="M1578.11,2440.03c0-28.79,22.21-49.22,52.6-49.22s52.42,20.43,52.42,49.22-22.03,49.22-52.42,49.22-52.6-20.43-52.6-49.22ZM1655.05,2440.03c0-16.52-10.48-26.48-24.34-26.48s-24.52,9.95-24.52,26.48,10.66,26.48,24.52,26.48,24.34-9.95,24.34-26.48Z"/>
        <path class="cls-3" d="M1697.52,2473.08c0-9.06,7.11-15.81,17.06-15.81s17.06,6.75,17.06,15.81-7.11,16.17-17.06,16.17-17.06-7.29-17.06-16.17ZM1698.05,2363.45h33.05l-5.51,81.2h-22.03l-5.51-81.2Z"/>
      </g>
    </g>
    <g>
      <path class="cls-8" d="M822.05,2118.06c0,75.15-60.92,136.06-136.06,136.06h-272.13l-136.26,136.26v-136.26c-75.06-.11-135.87-60.98-135.87-136.06s60.92-136.06,136.06-136.06h408.19c75.14,0,136.06,60.92,136.06,136.06Z"/>
      <g>
        <path class="cls-3" d="M243.38,2164.27l9.07-20.13c9.73,7.09,24.25,12.05,38.11,12.05,15.84,0,22.28-5.28,22.28-12.38,0-21.62-67.15-6.76-67.15-49.66,0-19.63,15.84-35.97,48.67-35.97,14.52,0,29.37,3.46,40.1,10.23l-8.25,20.29c-10.72-6.1-21.78-9.07-32.01-9.07-15.84,0-21.95,5.94-21.95,13.2,0,21.28,67.15,6.6,67.15,49,0,19.3-16,35.8-49,35.8-18.31,0-36.79-5.45-47.02-13.37Z"/>
        <path class="cls-3" d="M434.45,2125v50.65h-24.09v-11.06c-4.78,8.09-14.02,12.38-27.06,12.38-20.79,0-33.17-11.55-33.17-26.89s11.06-26.57,38.11-26.57h20.46c0-11.06-6.6-17.49-20.46-17.49-9.4,0-19.14,3.13-25.57,8.25l-9.24-17.99c9.74-6.93,24.09-10.72,38.28-10.72,27.06,0,42.73,12.54,42.73,39.43ZM408.71,2147.6v-9.07h-17.65c-12.05,0-15.84,4.46-15.84,10.39,0,6.43,5.45,10.72,14.52,10.72,8.58,0,16-3.96,18.98-12.05Z"/>
        <path class="cls-3" d="M457.72,2053.22h25.74v122.43h-25.74v-122.43Z"/>
        <path class="cls-3" d="M596.81,2086.88v88.77h-24.42v-10.56c-6.76,7.76-16.66,11.88-27.55,11.88-22.28,0-37.95-12.54-37.95-39.93v-50.16h25.74v46.36c0,14.85,6.6,21.45,17.99,21.45s20.46-7.59,20.46-23.92v-43.89h25.74Z"/>
        <path class="cls-3" d="M677.99,2171.36c-5.28,3.8-13.03,5.61-20.95,5.61-20.95,0-33.16-10.72-33.16-31.84v-36.47h-13.69v-19.8h13.69v-21.62h25.74v21.62h22.11v19.8h-22.11v36.14c0,7.59,4.13,11.72,11.06,11.72,3.8,0,7.59-1.16,10.39-3.3l6.93,18.15Z"/>
        <path class="cls-3" d="M688.72,2161.96c0-8.41,6.6-14.69,15.84-14.69s15.84,6.27,15.84,14.69-6.6,15.02-15.84,15.02-15.84-6.76-15.84-15.02ZM689.21,2060.15h30.69l-5.12,75.4h-20.46l-5.11-75.4Z"/>
      </g>
    </g>
    <path class="cls-5" d="M620.4,23.87c0,342.64-277.76,620.4-620.4,620.4"/>
    <circle class="cls-6" cx="1455.65" cy="1325.58" r="59.39"/>
    <circle class="cls-6" cx="299.97" cy="566.05" r="41.12"/>
  </g>
</svg>